<?xml version="1.0" encoding="iso-8859-1"?>
<!-- Generator: Adobe Illustrator 19.0.0, SVG Export Plug-In . SVG Version: 6.00 Build 0)  -->
<svg version="1.1" id="Capa_1" xmlns="http://www.w3.org/2000/svg" xmlns:xlink="http://www.w3.org/1999/xlink" x="0px" y="0px"
	 viewBox="0 0 59 59" style="enable-background:new 0 0 59 59;" xml:space="preserve">
<path style="fill:#556080;" d="M39.5,8h-20V2.24C19.5,1.005,20.505,0,21.74,0h15.52c1.235,0,2.24,1.005,2.24,2.24V8z M21.5,6h16
	V2.24C37.5,2.108,37.392,2,37.26,2H21.74c-0.132,0-0.24,0.108-0.24,0.24V6z"/>
<path style="fill:#556080;" d="M6.5,14v39c0,3.3,2.7,6,6,6h34c3.3,0,6-2.7,6-6V14H6.5z"/>
<g>
	<rect x="14.5" y="14" style="fill:#3E4C70;" width="6" height="11"/>
	<polygon style="fill:#3E4C70;" points="14.5,33 14.5,35 17.5,39 20.5,35 20.5,33 	"/>
</g>
<g>
	<rect x="38.5" y="14" style="fill:#3E4C70;" width="6" height="11"/>
	<polygon style="fill:#3E4C70;" points="38.5,33 38.5,35 41.5,39 44.5,35 44.5,33 	"/>
</g>
<path style="fill:#EBBA16;" d="M30.029,29.895l-3.862-3.862l3.885-3.885l3.862,3.862L30.029,29.895z M28.995,26.032l1.034,1.034
	l1.057-1.057l-1.034-1.034L28.995,26.032z"/>
<path style="fill:#28384C;" d="M54.5,14h-50V8.141C4.5,6.406,5.906,5,7.641,5h43.718C53.094,5,54.5,6.406,54.5,8.141V14z"/>
<path style="fill:#28384C;" d="M55.007,51H52.5V27h3.705c1.267,0,2.295,1.027,2.295,2.295v18.213C58.5,49.436,56.936,51,55.007,51z"
	/>
<path style="fill:#28384C;" d="M6.5,51H3.993C2.064,51,0.5,49.436,0.5,47.507V29.295C0.5,28.027,1.527,27,2.795,27H6.5V51z"/>
<rect x="12.5" y="43" style="fill:#3E4C70;" width="34" height="16"/>
<rect x="12.5" y="43" style="fill:#28384C;" width="34" height="7"/>
<path style="fill:#C7CAC7;" d="M22.5,34h-10V24h10V34z M14.5,32h6v-6h-6V32z"/>
<path style="fill:#C7CAC7;" d="M46.5,34h-10V24h10V34z M38.5,32h6v-6h-6V32z"/>
<path style="fill:#FFFFFF;" d="M17.5,33c-0.552,0-1-0.448-1-1v-2c0-0.552,0.448-1,1-1s1,0.448,1,1v2C18.5,32.552,18.052,33,17.5,33z
	"/>
<path style="fill:#FFFFFF;" d="M41.5,33c-0.552,0-1-0.448-1-1v-2c0-0.552,0.448-1,1-1s1,0.448,1,1v2C42.5,32.552,42.052,33,41.5,33z
	"/>
<g>
</g>
<g>
</g>
<g>
</g>
<g>
</g>
<g>
</g>
<g>
</g>
<g>
</g>
<g>
</g>
<g>
</g>
<g>
</g>
<g>
</g>
<g>
</g>
<g>
</g>
<g>
</g>
<g>
</g>
</svg>
