<?xml version="1.0" encoding="iso-8859-1"?>
<!-- Generator: Adobe Illustrator 19.0.0, SVG Export Plug-In . SVG Version: 6.00 Build 0)  -->
<svg version="1.1" id="Capa_1" xmlns="http://www.w3.org/2000/svg" xmlns:xlink="http://www.w3.org/1999/xlink" x="0px" y="0px"
	 viewBox="0 0 58 58" style="enable-background:new 0 0 58 58;" xml:space="preserve">
<path style="fill:#6B4842;" d="M54,26.5H33v-2c0-2.2-1.8-4-4-4s-4,1.8-4,4v2H4c-1.198,0-2.265-0.545-3-1.387V51.5c0,2.2,1.8,4,4,4
	h48c2.2,0,4-1.8,4-4V25.113C56.265,25.955,55.198,26.5,54,26.5z"/>
<path style="fill:#BE6E41;" d="M54,11.5H4c-2.2,0-4,1.8-4,4v7c0,2.2,1.8,4,4,4h21v4c0,2.2,1.8,4,4,4s4-1.8,4-4v-4h21
	c2.2,0,4-1.8,4-4v-7C58,13.3,56.2,11.5,54,11.5z"/>
<path style="fill:#BFA380;" d="M29,28.5L29,28.5c-2.2,0-4-1.8-4-4v0c0-2.2,1.8-4,4-4h0c2.2,0,4,1.8,4,4v0C33,26.7,31.2,28.5,29,28.5
	z"/>
<path style="fill:#BE6E41;" d="M7,52.5c-1.058,0-2.042-0.483-2.77-1.362c-0.353-0.425-0.293-1.056,0.132-1.408
	c0.426-0.353,1.056-0.294,1.408,0.132c0.683,0.823,1.777,0.823,2.46,0c0.354-0.426,0.984-0.484,1.408-0.132
	c0.425,0.353,0.484,0.983,0.132,1.408C9.042,52.017,8.058,52.5,7,52.5z"/>
<path style="fill:#BE6E41;" d="M7,47.5c-1.058,0-2.042-0.483-2.77-1.362c-0.353-0.425-0.293-1.056,0.132-1.408
	c0.426-0.352,1.056-0.294,1.408,0.132c0.683,0.823,1.777,0.823,2.46,0c0.354-0.426,0.984-0.484,1.408-0.132
	c0.425,0.353,0.484,0.983,0.132,1.408C9.042,47.017,8.058,47.5,7,47.5z"/>
<path style="fill:#BE6E41;" d="M7,42.5c-1.058,0-2.042-0.483-2.77-1.362c-0.353-0.425-0.293-1.056,0.132-1.408
	c0.426-0.352,1.056-0.293,1.408,0.132c0.683,0.823,1.777,0.823,2.46,0c0.354-0.425,0.984-0.483,1.408-0.132
	c0.425,0.353,0.484,0.983,0.132,1.408C9.042,42.017,8.058,42.5,7,42.5z"/>
<path style="fill:#BE6E41;" d="M7,37.5c-1.058,0-2.042-0.483-2.77-1.362c-0.353-0.425-0.293-1.056,0.132-1.408
	c0.426-0.352,1.056-0.293,1.408,0.132c0.683,0.823,1.777,0.823,2.46,0c0.354-0.425,0.984-0.483,1.408-0.132
	c0.425,0.353,0.484,0.983,0.132,1.408C9.042,37.017,8.058,37.5,7,37.5z"/>
<path style="fill:#BE6E41;" d="M7,32.5c-1.058,0-2.042-0.483-2.77-1.362c-0.353-0.425-0.293-1.056,0.132-1.408
	c0.426-0.352,1.056-0.293,1.408,0.132c0.683,0.823,1.777,0.823,2.46,0c0.354-0.426,0.984-0.483,1.408-0.132
	c0.425,0.353,0.484,0.983,0.132,1.408C9.042,32.017,8.058,32.5,7,32.5z"/>
<path style="fill:#6B4842;" d="M8,23.5c-1.058,0-2.042-0.483-2.77-1.362c-0.353-0.425-0.293-1.056,0.132-1.408
	c0.426-0.353,1.056-0.294,1.408,0.132c0.683,0.823,1.777,0.823,2.46,0c0.354-0.425,0.984-0.483,1.408-0.132
	c0.425,0.353,0.484,0.983,0.132,1.408C10.042,23.017,9.058,23.5,8,23.5z"/>
<path style="fill:#6B4842;" d="M8,17.5c-1.058,0-2.042-0.483-2.77-1.362c-0.353-0.425-0.293-1.056,0.132-1.408
	c0.426-0.353,1.056-0.293,1.408,0.132c0.683,0.823,1.777,0.823,2.46,0c0.354-0.425,0.984-0.484,1.408-0.132
	c0.425,0.353,0.484,0.983,0.132,1.408C10.042,17.017,9.058,17.5,8,17.5z"/>
<path style="fill:#BE6E41;" d="M19,52.5c-1.058,0-2.042-0.483-2.77-1.362c-0.353-0.425-0.293-1.056,0.132-1.408
	c0.426-0.353,1.056-0.294,1.408,0.132c0.683,0.823,1.777,0.823,2.46,0c0.354-0.426,0.984-0.484,1.408-0.132
	c0.425,0.353,0.484,0.983,0.132,1.408C21.042,52.017,20.058,52.5,19,52.5z"/>
<path style="fill:#BE6E41;" d="M19,47.5c-1.058,0-2.042-0.483-2.77-1.362c-0.353-0.425-0.293-1.056,0.132-1.408
	c0.426-0.352,1.056-0.294,1.408,0.132c0.683,0.823,1.777,0.823,2.46,0c0.354-0.426,0.984-0.484,1.408-0.132
	c0.425,0.353,0.484,0.983,0.132,1.408C21.042,47.017,20.058,47.5,19,47.5z"/>
<path style="fill:#BE6E41;" d="M19,42.5c-1.058,0-2.042-0.483-2.77-1.362c-0.353-0.425-0.293-1.056,0.132-1.408
	c0.426-0.352,1.056-0.293,1.408,0.132c0.683,0.823,1.777,0.823,2.46,0c0.354-0.425,0.984-0.483,1.408-0.132
	c0.425,0.353,0.484,0.983,0.132,1.408C21.042,42.017,20.058,42.5,19,42.5z"/>
<path style="fill:#BE6E41;" d="M19,37.5c-1.058,0-2.042-0.483-2.77-1.362c-0.353-0.425-0.293-1.056,0.132-1.408
	c0.426-0.352,1.056-0.293,1.408,0.132c0.683,0.823,1.777,0.823,2.46,0c0.354-0.425,0.984-0.483,1.408-0.132
	c0.425,0.353,0.484,0.983,0.132,1.408C21.042,37.017,20.058,37.5,19,37.5z"/>
<path style="fill:#BE6E41;" d="M19,32.5c-1.058,0-2.042-0.483-2.77-1.362c-0.353-0.425-0.293-1.056,0.132-1.408
	c0.426-0.352,1.056-0.293,1.408,0.132c0.683,0.823,1.777,0.823,2.46,0c0.354-0.426,0.984-0.483,1.408-0.132
	c0.425,0.353,0.484,0.983,0.132,1.408C21.042,32.017,20.058,32.5,19,32.5z"/>
<path style="fill:#6B4842;" d="M19,23.5c-1.058,0-2.042-0.483-2.77-1.362c-0.353-0.425-0.293-1.056,0.132-1.408
	c0.426-0.353,1.056-0.294,1.408,0.132c0.683,0.823,1.777,0.823,2.46,0c0.354-0.425,0.984-0.483,1.408-0.132
	c0.425,0.353,0.484,0.983,0.132,1.408C21.042,23.017,20.058,23.5,19,23.5z"/>
<path style="fill:#6B4842;" d="M19,17.5c-1.058,0-2.042-0.483-2.77-1.362c-0.353-0.425-0.293-1.056,0.132-1.408
	c0.426-0.353,1.056-0.293,1.408,0.132c0.683,0.823,1.777,0.823,2.46,0c0.354-0.425,0.984-0.484,1.408-0.132
	c0.425,0.353,0.484,0.983,0.132,1.408C21.042,17.017,20.058,17.5,19,17.5z"/>
<path style="fill:#BE6E41;" d="M39,52.5c-1.058,0-2.042-0.483-2.77-1.362c-0.353-0.425-0.293-1.056,0.132-1.408
	s1.056-0.294,1.408,0.132c0.683,0.823,1.777,0.823,2.46,0c0.353-0.426,0.984-0.484,1.408-0.132c0.425,0.353,0.484,0.983,0.132,1.408
	C41.042,52.017,40.058,52.5,39,52.5z"/>
<path style="fill:#BE6E41;" d="M39,47.5c-1.058,0-2.042-0.483-2.77-1.362c-0.353-0.425-0.293-1.056,0.132-1.408
	c0.425-0.352,1.056-0.294,1.408,0.132c0.683,0.823,1.777,0.823,2.46,0c0.353-0.426,0.984-0.484,1.408-0.132
	c0.425,0.353,0.484,0.983,0.132,1.408C41.042,47.017,40.058,47.5,39,47.5z"/>
<path style="fill:#BE6E41;" d="M39,42.5c-1.058,0-2.042-0.483-2.77-1.362c-0.353-0.425-0.293-1.056,0.132-1.408
	c0.425-0.352,1.056-0.293,1.408,0.132c0.683,0.823,1.777,0.823,2.46,0c0.353-0.425,0.984-0.483,1.408-0.132
	c0.425,0.353,0.484,0.983,0.132,1.408C41.042,42.017,40.058,42.5,39,42.5z"/>
<path style="fill:#BE6E41;" d="M29,52.5c-1.058,0-2.042-0.483-2.77-1.362c-0.353-0.425-0.293-1.056,0.132-1.408
	s1.056-0.294,1.408,0.132c0.683,0.823,1.777,0.823,2.46,0c0.354-0.426,0.985-0.484,1.408-0.132c0.425,0.353,0.484,0.983,0.132,1.408
	C31.042,52.017,30.058,52.5,29,52.5z"/>
<path style="fill:#BE6E41;" d="M29,47.5c-1.058,0-2.042-0.483-2.77-1.362c-0.353-0.425-0.293-1.056,0.132-1.408
	c0.425-0.352,1.056-0.294,1.408,0.132c0.683,0.823,1.777,0.823,2.46,0c0.354-0.426,0.985-0.484,1.408-0.132
	c0.425,0.353,0.484,0.983,0.132,1.408C31.042,47.017,30.058,47.5,29,47.5z"/>
<path style="fill:#BE6E41;" d="M29,42.5c-1.058,0-2.042-0.483-2.77-1.362c-0.353-0.425-0.293-1.056,0.132-1.408
	c0.425-0.352,1.056-0.293,1.408,0.132c0.683,0.823,1.777,0.823,2.46,0c0.354-0.425,0.985-0.483,1.408-0.132
	c0.425,0.353,0.484,0.983,0.132,1.408C31.042,42.017,30.058,42.5,29,42.5z"/>
<path style="fill:#BE6E41;" d="M39,37.5c-1.058,0-2.042-0.483-2.77-1.362c-0.353-0.425-0.293-1.056,0.132-1.408
	c0.425-0.352,1.056-0.293,1.408,0.132c0.683,0.823,1.777,0.823,2.46,0c0.353-0.425,0.984-0.483,1.408-0.132
	c0.425,0.353,0.484,0.983,0.132,1.408C41.042,37.017,40.058,37.5,39,37.5z"/>
<path style="fill:#BE6E41;" d="M39,32.5c-1.058,0-2.042-0.483-2.77-1.362c-0.353-0.425-0.293-1.056,0.132-1.408
	c0.425-0.352,1.056-0.293,1.408,0.132c0.683,0.823,1.777,0.823,2.46,0c0.353-0.426,0.984-0.483,1.408-0.132
	c0.425,0.353,0.484,0.983,0.132,1.408C41.042,32.017,40.058,32.5,39,32.5z"/>
<path style="fill:#6B4842;" d="M39,23.5c-1.058,0-2.042-0.483-2.77-1.362c-0.353-0.425-0.293-1.056,0.132-1.408
	s1.056-0.294,1.408,0.132c0.683,0.823,1.777,0.823,2.46,0c0.353-0.425,0.984-0.483,1.408-0.132c0.425,0.353,0.484,0.983,0.132,1.408
	C41.042,23.017,40.058,23.5,39,23.5z"/>
<path style="fill:#6B4842;" d="M39,17.5c-1.058,0-2.042-0.483-2.77-1.362c-0.353-0.425-0.293-1.056,0.132-1.408
	s1.056-0.293,1.408,0.132c0.683,0.823,1.777,0.823,2.46,0c0.353-0.425,0.984-0.484,1.408-0.132c0.425,0.353,0.484,0.983,0.132,1.408
	C41.042,17.017,40.058,17.5,39,17.5z"/>
<path style="fill:#6B4842;" d="M29,17.5c-1.058,0-2.042-0.483-2.77-1.362c-0.353-0.425-0.293-1.056,0.132-1.408
	s1.056-0.293,1.408,0.132c0.683,0.823,1.777,0.823,2.46,0c0.354-0.425,0.985-0.484,1.408-0.132c0.425,0.353,0.484,0.983,0.132,1.408
	C31.042,17.017,30.058,17.5,29,17.5z"/>
<path style="fill:#BE6E41;" d="M51,52.5c-1.058,0-2.042-0.483-2.77-1.362c-0.353-0.425-0.293-1.056,0.132-1.408
	s1.056-0.294,1.408,0.132c0.683,0.823,1.777,0.823,2.46,0c0.354-0.426,0.984-0.484,1.408-0.132c0.425,0.353,0.484,0.983,0.132,1.408
	C53.042,52.017,52.058,52.5,51,52.5z"/>
<path style="fill:#BE6E41;" d="M51,47.5c-1.058,0-2.042-0.483-2.77-1.362c-0.353-0.425-0.293-1.056,0.132-1.408
	c0.425-0.352,1.056-0.294,1.408,0.132c0.683,0.823,1.777,0.823,2.46,0c0.354-0.426,0.984-0.484,1.408-0.132
	c0.425,0.353,0.484,0.983,0.132,1.408C53.042,47.017,52.058,47.5,51,47.5z"/>
<path style="fill:#BE6E41;" d="M51,42.5c-1.058,0-2.042-0.483-2.77-1.362c-0.353-0.425-0.293-1.056,0.132-1.408
	c0.425-0.352,1.056-0.293,1.408,0.132c0.683,0.823,1.777,0.823,2.46,0c0.354-0.425,0.984-0.483,1.408-0.132
	c0.425,0.353,0.484,0.983,0.132,1.408C53.042,42.017,52.058,42.5,51,42.5z"/>
<path style="fill:#BE6E41;" d="M51,37.5c-1.058,0-2.042-0.483-2.77-1.362c-0.353-0.425-0.293-1.056,0.132-1.408
	c0.425-0.352,1.056-0.293,1.408,0.132c0.683,0.823,1.777,0.823,2.46,0c0.354-0.425,0.984-0.483,1.408-0.132
	c0.425,0.353,0.484,0.983,0.132,1.408C53.042,37.017,52.058,37.5,51,37.5z"/>
<path style="fill:#BE6E41;" d="M51,32.5c-1.058,0-2.042-0.483-2.77-1.362c-0.353-0.425-0.293-1.056,0.132-1.408
	c0.425-0.352,1.056-0.293,1.408,0.132c0.683,0.823,1.777,0.823,2.46,0c0.354-0.426,0.984-0.483,1.408-0.132
	c0.425,0.353,0.484,0.983,0.132,1.408C53.042,32.017,52.058,32.5,51,32.5z"/>
<path style="fill:#6B4842;" d="M50,23.5c-1.058,0-2.042-0.483-2.77-1.362c-0.353-0.425-0.293-1.056,0.132-1.408
	c0.426-0.353,1.057-0.294,1.408,0.132c0.683,0.823,1.777,0.823,2.46,0c0.354-0.425,0.984-0.483,1.408-0.132
	c0.425,0.353,0.484,0.983,0.132,1.408C52.042,23.017,51.058,23.5,50,23.5z"/>
<path style="fill:#6B4842;" d="M50,17.5c-1.058,0-2.042-0.483-2.77-1.362c-0.353-0.425-0.293-1.056,0.132-1.408
	c0.426-0.353,1.057-0.293,1.408,0.132c0.683,0.823,1.777,0.823,2.46,0c0.354-0.425,0.984-0.484,1.408-0.132
	c0.425,0.353,0.484,0.983,0.132,1.408C52.042,17.017,51.058,17.5,50,17.5z"/>
<path style="fill:#BE6E41;" d="M39,11.5L39,11.5c0-2.761-2.239-5-5-5H24c-2.761,0-5,2.239-5,5v0h-4v0c0-4.971,4.029-9,9-9h10
	c4.971,0,9,4.029,9,9v0H39z"/>
<path style="fill:#BE6E41;" d="M13,52.5c-0.552,0-1-0.448-1-1v-20c0-0.552,0.448-1,1-1s1,0.448,1,1v20
	C14,52.052,13.552,52.5,13,52.5z"/>
<path style="fill:#BE6E41;" d="M45,52.5c-0.552,0-1-0.448-1-1v-20c0-0.552,0.448-1,1-1s1,0.448,1,1v20
	C46,52.052,45.552,52.5,45,52.5z"/>
<g>
</g>
<g>
</g>
<g>
</g>
<g>
</g>
<g>
</g>
<g>
</g>
<g>
</g>
<g>
</g>
<g>
</g>
<g>
</g>
<g>
</g>
<g>
</g>
<g>
</g>
<g>
</g>
<g>
</g>
</svg>
