<?xml version="1.0" encoding="iso-8859-1"?>
<!-- Generator: Adobe Illustrator 19.0.0, SVG Export Plug-In . SVG Version: 6.00 Build 0)  -->
<svg version="1.1" id="Capa_1" xmlns="http://www.w3.org/2000/svg" xmlns:xlink="http://www.w3.org/1999/xlink" x="0px" y="0px"
	 viewBox="0 0 58 58" style="enable-background:new 0 0 58 58;" xml:space="preserve">
<path style="fill:#7E582B;" d="M23.3,48.842C15.685,56.458,6.345,59.465,2.44,55.56S1.542,42.315,9.158,34.7l19.558-19.558
	C44.449-0.591,57,1,57,1s1.591,12.551-14.142,28.284L23.3,48.842z"/>
<path style="fill:#44301B;" d="M21.744,27.771l7.212-7.212c2.333-2.333,6.152-2.333,8.485,0l0,0c2.333,2.333,2.333,6.152,0,8.485
	l-7.212,7.212c-0.313,0.313-0.82,0.313-1.132,0l-7.353-7.353C21.431,28.591,21.431,28.084,21.744,27.771z"/>
<path style="fill:#AD8559;" d="M46.633,19.438c-0.197,0-0.396-0.058-0.57-0.179c-0.453-0.315-0.565-0.938-0.25-1.392
	c3.022-4.345,4.427-7.61,5.074-9.583c0.179-0.545,0.331-1.062,0.46-1.551c-2.479,0.592-6.376,2.09-11.213,5.456
	c-0.452,0.315-1.077,0.204-1.393-0.25s-0.203-1.077,0.25-1.392c5.07-3.527,9.196-5.108,11.765-5.814
	c0.713-0.198,1.457-0.004,1.983,0.518c0.529,0.524,0.731,1.269,0.541,1.992c-0.139,0.525-0.301,1.082-0.493,1.666
	c-0.987,3.011-2.831,6.504-5.332,10.101C47.261,19.288,46.949,19.438,46.633,19.438z"/>
<rect x="23.663" y="27.337" transform="matrix(0.7071 0.7071 -0.7071 0.7071 28.7252 -12.6749)" style="fill:#7E582B;" width="12" height="2"/>
<path style="fill:#F2ECBF;" d="M20.47,45.601c-0.503,0-0.937-0.378-0.993-0.89l-1.414-12.728c-0.061-0.549,0.335-1.043,0.884-1.104
	c0.554-0.062,1.044,0.335,1.104,0.883l1.414,12.728c0.061,0.549-0.335,1.043-0.884,1.104C20.544,45.599,20.506,45.601,20.47,45.601z
	"/>
<path style="fill:#F2ECBF;" d="M26.128,39.944c-0.037,0-0.074-0.002-0.111-0.006l-12.728-1.415
	c-0.549-0.061-0.944-0.555-0.884-1.104c0.062-0.548,0.565-0.941,1.104-0.883l12.728,1.415c0.549,0.061,0.944,0.555,0.884,1.104
	C27.064,39.565,26.631,39.944,26.128,39.944z"/>
<path style="fill:#F2ECBF;" d="M11.984,54.086c-0.503,0-0.937-0.378-0.993-0.89L9.577,40.468c-0.061-0.549,0.335-1.043,0.884-1.104
	c0.553-0.067,1.044,0.335,1.104,0.883l1.414,12.728c0.061,0.549-0.335,1.043-0.884,1.104C12.059,54.084,12.021,54.086,11.984,54.086
	z"/>
<path style="fill:#F2ECBF;" d="M17.644,48.429c-0.037,0-0.074-0.002-0.111-0.006L4.804,47.008c-0.549-0.061-0.944-0.555-0.884-1.104
	c0.062-0.549,0.566-0.943,1.104-0.883l12.729,1.414c0.549,0.061,0.944,0.555,0.884,1.104C18.58,48.05,18.146,48.429,17.644,48.429z"
	/>
<path style="fill:#BD7938;" d="M8.912,14.602c0.577,0.577,1.289,0.935,2.037,1.079c1.39,0.269,2.706,0.835,3.707,1.836l5.842,5.842
	l2.828-2.828l-5.842-5.842c-1.001-1.001-1.567-2.317-1.836-3.707c-0.144-0.747-0.502-1.46-1.079-2.037L6.79,1.167
	c-1.651-1.651-4.418-1.55-5.932,0.305c-1.319,1.616-1.066,4.01,0.409,5.485L8.912,14.602z"/>
<path style="fill:#BD7938;" d="M56.733,51.043l-7.645-7.645c-0.577-0.577-1.289-0.935-2.037-1.079
	c-1.39-0.269-2.706-0.835-3.707-1.836l-5.842-5.842l-2.828,2.828l5.842,5.842c1.001,1.001,1.567,2.317,1.836,3.707
	c0.144,0.747,0.502,1.46,1.079,2.037l7.778,7.778c1.651,1.651,4.418,1.55,5.932-0.305C58.461,54.913,58.208,52.518,56.733,51.043z"
	/>
<circle style="fill:#AD8559;" cx="45" cy="13" r="1"/>
<circle style="fill:#AD8559;" cx="43" cy="15" r="1"/>
<circle style="fill:#AD8559;" cx="41" cy="17" r="1"/>
<g>
</g>
<g>
</g>
<g>
</g>
<g>
</g>
<g>
</g>
<g>
</g>
<g>
</g>
<g>
</g>
<g>
</g>
<g>
</g>
<g>
</g>
<g>
</g>
<g>
</g>
<g>
</g>
<g>
</g>
</svg>
