<?xml version="1.0" encoding="iso-8859-1"?>
<!-- Generator: Adobe Illustrator 19.0.0, SVG Export Plug-In . SVG Version: 6.00 Build 0)  -->
<svg version="1.1" id="Capa_1" xmlns="http://www.w3.org/2000/svg" xmlns:xlink="http://www.w3.org/1999/xlink" x="0px" y="0px"
	 viewBox="0 0 58 58" style="enable-background:new 0 0 58 58;" xml:space="preserve">
<path style="fill:#C7CAC7;" d="M35.835,0h-9.679c-6.66,0-12.059,5.399-12.059,12.059V16h4v-3.941C18.098,7.615,21.713,4,26.157,4
	h9.679c2.578,0,4.938,1.188,6.473,3.259c1.536,2.071,1.987,4.674,1.239,7.141L33.85,48.346C32.829,51.702,29.731,54,26.157,54
	c-4.443,0-8.059-3.615-8.059-8.059V43h-4v2.941c0,6.66,5.399,12.059,12.059,12.059l0,0c5.311,0,9.996-3.474,11.539-8.556
	l9.679-33.883C49.725,7.816,43.929,0,35.835,0z"/>
<path style="fill:#E7ECED;" d="M20.754,26h-9.313c-0.742,0-1.344-0.602-1.344-1.344v-3.313c0-0.742,0.602-1.344,1.344-1.344h9.313
	c0.742,0,1.344,0.602,1.344,1.344v3.313C22.098,25.398,21.496,26,20.754,26z"/>
<path style="fill:#C7CAC7;" d="M20.754,32h-9.313c-0.742,0-1.344-0.602-1.344-1.344v-3.313c0-0.742,0.602-1.344,1.344-1.344h9.313
	c0.742,0,1.344,0.602,1.344,1.344v3.313C22.098,31.398,21.496,32,20.754,32z"/>
<g>
	<path style="fill:#949493;" d="M12.098,32v9.774c0,0.677,0.549,1.226,1.226,1.226h5.548c0.677,0,1.226-0.549,1.226-1.226V32H12.098
		z"/>
	<path style="fill:#949493;" d="M20.098,20v-2.774c0-0.677-0.549-1.226-1.226-1.226h-5.548c-0.677,0-1.226,0.549-1.226,1.226V20
		H20.098z"/>
</g>
<g>
</g>
<g>
</g>
<g>
</g>
<g>
</g>
<g>
</g>
<g>
</g>
<g>
</g>
<g>
</g>
<g>
</g>
<g>
</g>
<g>
</g>
<g>
</g>
<g>
</g>
<g>
</g>
<g>
</g>
</svg>
