<?xml version="1.0" encoding="iso-8859-1"?>
<!-- Generator: Adobe Illustrator 19.0.0, SVG Export Plug-In . SVG Version: 6.00 Build 0)  -->
<svg version="1.1" id="Capa_1" xmlns="http://www.w3.org/2000/svg" xmlns:xlink="http://www.w3.org/1999/xlink" x="0px" y="0px"
	 viewBox="0 0 56.943 56.943" style="enable-background:new 0 0 56.943 56.943;" xml:space="preserve">
<path style="fill:#BFA380;" d="M15.763,15.763c2.322-2.322,5.124-3.858,8.084-4.644L13.096,0.368c-0.49-0.49-1.285-0.49-1.775,0
	L0.368,11.32c-0.49,0.49-0.49,1.285,0,1.775l10.751,10.751C11.904,20.886,13.441,18.084,15.763,15.763z"/>
<path style="fill:#BFA380;" d="M41.18,41.18c-2.322,2.322-5.124,3.858-8.084,4.644l10.751,10.751c0.49,0.49,1.285,0.49,1.775,0
	l10.953-10.953c0.49-0.49,0.49-1.285,0-1.775L45.824,33.096C45.038,36.056,43.502,38.859,41.18,41.18z"/>
<g>
	<path style="fill:#9E6C53;" d="M14.471,9.463h-3v-3c0-0.552-0.448-1-1-1s-1,0.448-1,1v3h-3c-0.552,0-1,0.448-1,1s0.448,1,1,1h3v3
		c0,0.552,0.448,1,1,1s1-0.448,1-1v-3h3c0.552,0,1-0.448,1-1S15.024,9.463,14.471,9.463z"/>
	<path style="fill:#9E6C53;" d="M50.471,45.463h-3v-3c0-0.552-0.448-1-1-1s-1,0.448-1,1v3h-3c-0.552,0-1,0.448-1,1s0.448,1,1,1h3v3
		c0,0.552,0.448,1,1,1s1-0.448,1-1v-3h3c0.552,0,1-0.448,1-1S51.024,45.463,50.471,45.463z"/>
</g>
<circle style="fill:#556080;stroke:#38454F;stroke-width:2;stroke-miterlimit:10;" cx="28.471" cy="28.471" r="17.973"/>
<g>
	<path style="fill:#7383BF;" d="M14.471,29.472c0.552,0,1-0.448,1-1s-0.448-1-1-1h-4c-0.552,0-1,0.448-1,1s0.448,1,1,1H14.471z"/>
	<path style="fill:#7383BF;" d="M46.471,27.472h-4c-0.552,0-1,0.448-1,1s0.448,1,1,1h4c0.552,0,1-0.448,1-1
		S47.024,27.472,46.471,27.472z"/>
	<path style="fill:#7383BF;" d="M28.471,9.463c-0.552,0-1,0.448-1,1v4c0,0.552,0.448,1,1,1s1-0.448,1-1v-4
		C29.471,9.911,29.024,9.463,28.471,9.463z"/>
	<path style="fill:#7383BF;" d="M28.471,41.463c-0.552,0-1,0.448-1,1v4c0,0.552,0.448,1,1,1s1-0.448,1-1v-4
		C29.471,41.911,29.024,41.463,28.471,41.463z"/>
	<path style="fill:#7383BF;" d="M19.285,37.661c-0.391-0.391-1.023-0.391-1.414,0l-2.829,2.828c-0.391,0.39-0.391,1.023,0,1.414
		c0.195,0.195,0.451,0.293,0.707,0.293s0.512-0.098,0.707-0.293l2.829-2.828C19.676,38.685,19.676,38.052,19.285,37.661z"/>
	<path style="fill:#7383BF;" d="M37.67,19.276c0.195,0.195,0.451,0.293,0.707,0.293s0.512-0.098,0.707-0.293l2.829-2.828
		c0.391-0.39,0.391-1.023,0-1.414s-1.023-0.391-1.414,0l-2.829,2.828C37.279,18.252,37.279,18.886,37.67,19.276z"/>
	<path style="fill:#7383BF;" d="M17.865,19.27c0.195,0.195,0.451,0.293,0.707,0.293s0.512-0.098,0.707-0.293
		c0.391-0.391,0.391-1.023,0-1.414l-2.829-2.829c-0.391-0.391-1.023-0.391-1.414,0s-0.391,1.023,0,1.414L17.865,19.27z"/>
	<path style="fill:#7383BF;" d="M39.078,37.655c-0.391-0.391-1.023-0.391-1.414,0s-0.391,1.023,0,1.414l2.829,2.829
		c0.195,0.195,0.451,0.293,0.707,0.293s0.512-0.098,0.707-0.293c0.391-0.391,0.391-1.023,0-1.414L39.078,37.655z"/>
	<path style="fill:#7383BF;" d="M15.917,31.836c-0.143-0.534-0.69-0.852-1.225-0.707l-3.864,1.035
		c-0.534,0.143-0.85,0.691-0.707,1.225c0.12,0.447,0.523,0.742,0.965,0.742c0.085,0,0.172-0.011,0.259-0.035l3.864-1.035
		C15.743,32.918,16.06,32.369,15.917,31.836z"/>
	<path style="fill:#7383BF;" d="M41.031,25.106c0.12,0.447,0.523,0.742,0.965,0.742c0.085,0,0.172-0.011,0.259-0.035l3.864-1.035
		c0.534-0.143,0.85-0.691,0.707-1.225c-0.143-0.533-0.688-0.854-1.225-0.707l-3.864,1.035
		C41.204,24.024,40.888,24.573,41.031,25.106z"/>
	<path style="fill:#7383BF;" d="M23.882,15.199c0.12,0.447,0.523,0.742,0.965,0.742c0.085,0,0.172-0.011,0.259-0.035
		c0.534-0.143,0.85-0.691,0.707-1.225l-1.035-3.864c-0.143-0.533-0.689-0.852-1.225-0.707c-0.534,0.143-0.85,0.691-0.707,1.225
		L23.882,15.199z"/>
	<path style="fill:#7383BF;" d="M33.061,41.727c-0.143-0.533-0.688-0.853-1.225-0.707c-0.534,0.143-0.85,0.691-0.707,1.225
		l1.035,3.864c0.12,0.447,0.523,0.742,0.965,0.742c0.085,0,0.172-0.011,0.259-0.035c0.534-0.143,0.85-0.691,0.707-1.225
		L33.061,41.727z"/>
	<path style="fill:#7383BF;" d="M21.979,39.725c-0.479-0.277-1.09-0.112-1.366,0.366l-2,3.464c-0.276,0.478-0.112,1.09,0.366,1.366
		c0.157,0.091,0.33,0.134,0.499,0.134c0.346,0,0.682-0.179,0.867-0.5l2-3.464C22.621,40.614,22.458,40.002,21.979,39.725z"/>
	<path style="fill:#7383BF;" d="M34.979,17.209c0.157,0.091,0.33,0.134,0.499,0.134c0.346,0,0.682-0.179,0.867-0.5l2-3.464
		c0.276-0.478,0.112-1.09-0.366-1.366c-0.478-0.277-1.09-0.112-1.366,0.366l-2,3.464C34.337,16.321,34.501,16.932,34.979,17.209z"/>
	<path style="fill:#7383BF;" d="M12.383,20.329l3.464,2c0.158,0.091,0.33,0.134,0.499,0.134c0.346,0,0.682-0.179,0.867-0.5
		c0.276-0.479,0.112-1.09-0.366-1.366l-3.464-2c-0.481-0.277-1.09-0.112-1.366,0.366C11.741,19.441,11.904,20.053,12.383,20.329z"/>
	<path style="fill:#7383BF;" d="M44.56,36.597l-3.464-2c-0.479-0.277-1.09-0.113-1.366,0.366c-0.276,0.478-0.112,1.09,0.366,1.366
		l3.464,2c0.157,0.091,0.33,0.134,0.499,0.134c0.346,0,0.682-0.179,0.867-0.5C45.202,37.485,45.038,36.873,44.56,36.597z"/>
	<path style="fill:#7383BF;" d="M17.218,34.971c-0.277-0.478-0.888-0.644-1.366-0.366l-3.464,2
		c-0.479,0.276-0.642,0.888-0.366,1.366c0.186,0.321,0.521,0.5,0.867,0.5c0.169,0,0.341-0.043,0.499-0.134l3.464-2
		C17.33,36.06,17.494,35.449,17.218,34.971z"/>
	<path style="fill:#7383BF;" d="M39.734,21.971c0.186,0.321,0.521,0.5,0.867,0.5c0.169,0,0.342-0.043,0.499-0.134l3.464-2
		c0.479-0.276,0.642-0.888,0.366-1.366c-0.276-0.479-0.888-0.643-1.366-0.366l-3.464,2C39.622,20.881,39.458,21.493,39.734,21.971z"
		/>
	<path style="fill:#7383BF;" d="M20.605,16.839c0.186,0.321,0.521,0.5,0.867,0.5c0.169,0,0.341-0.043,0.499-0.134
		c0.478-0.276,0.642-0.888,0.366-1.366l-2-3.464c-0.276-0.479-0.887-0.643-1.366-0.366c-0.478,0.276-0.642,0.888-0.366,1.366
		L20.605,16.839z"/>
	<path style="fill:#7383BF;" d="M36.337,40.088c-0.277-0.479-0.888-0.644-1.366-0.366c-0.479,0.276-0.642,0.888-0.366,1.366l2,3.464
		c0.186,0.321,0.521,0.5,0.867,0.5c0.169,0,0.342-0.043,0.499-0.134c0.479-0.276,0.642-0.888,0.366-1.366L36.337,40.088z"/>
	<path style="fill:#7383BF;" d="M25.115,41.023c-0.533-0.143-1.082,0.173-1.225,0.707l-1.036,3.864
		c-0.143,0.533,0.173,1.082,0.707,1.225c0.086,0.023,0.174,0.035,0.259,0.035c0.441,0,0.846-0.295,0.965-0.742l1.036-3.864
		C25.965,41.714,25.649,41.166,25.115,41.023z"/>
	<path style="fill:#7383BF;" d="M33.398,10.113c-0.533-0.144-1.082,0.174-1.225,0.707l-1.036,3.864
		c-0.143,0.533,0.173,1.082,0.707,1.225c0.086,0.023,0.174,0.035,0.259,0.035c0.441,0,0.846-0.295,0.965-0.742l1.036-3.864
		C34.248,10.805,33.931,10.256,33.398,10.113z"/>
	<path style="fill:#7383BF;" d="M10.826,24.77l3.863,1.035c0.087,0.023,0.174,0.035,0.259,0.035c0.442,0,0.846-0.295,0.965-0.742
		c0.143-0.533-0.173-1.082-0.707-1.225l-3.863-1.035c-0.538-0.145-1.082,0.174-1.225,0.707C9.976,24.079,10.293,24.627,10.826,24.77
		z"/>
	<path style="fill:#7383BF;" d="M46.117,32.156l-3.864-1.035c-0.536-0.146-1.083,0.174-1.225,0.707
		c-0.143,0.534,0.173,1.082,0.707,1.225l3.864,1.035c0.087,0.023,0.174,0.035,0.259,0.035c0.442,0,0.846-0.295,0.965-0.742
		C46.967,32.847,46.65,32.299,46.117,32.156z"/>
</g>
<line style="fill:none;stroke:#38454F;stroke-width:2;stroke-miterlimit:10;" x1="43.593" y1="13.341" x2="41.471" y2="15.463"/>
<path style="fill:#C7CAC7;" d="M45.392,15.14l-3.598-3.598c-0.178-0.178-0.178-0.467,0-0.645l2.183-2.183
	c0.178-0.178,0.467-0.178,0.645,0l3.598,3.598c0.178,0.178,0.178,0.467,0,0.645l-2.183,2.183
	C45.858,15.318,45.57,15.318,45.392,15.14z"/>
<path style="fill:#FFFFFF;" d="M36.094,33.68l-4.139-3.291c0.319-0.574,0.517-1.225,0.517-1.927c0-1.858-1.28-3.411-3-3.858v-6.142
	c0-0.552-0.448-1-1-1s-1,0.448-1,1v6.142c-1.72,0.447-3,2-3,3.858c0,2.206,1.794,4,4,4c0.775,0,1.492-0.231,2.105-0.614l4.272,3.396
	c0.184,0.146,0.404,0.217,0.622,0.217c0.294,0,0.586-0.129,0.783-0.377C36.598,34.653,36.526,34.024,36.094,33.68z M26.471,28.463
	c0-1.103,0.897-2,2-2s2,0.897,2,2s-0.897,2-2,2S26.471,29.566,26.471,28.463z"/>
<g>
</g>
<g>
</g>
<g>
</g>
<g>
</g>
<g>
</g>
<g>
</g>
<g>
</g>
<g>
</g>
<g>
</g>
<g>
</g>
<g>
</g>
<g>
</g>
<g>
</g>
<g>
</g>
<g>
</g>
</svg>
