<?xml version="1.0" encoding="iso-8859-1"?>
<!-- Generator: Adobe Illustrator 19.0.0, SVG Export Plug-In . SVG Version: 6.00 Build 0)  -->
<svg version="1.1" id="Capa_1" xmlns="http://www.w3.org/2000/svg" xmlns:xlink="http://www.w3.org/1999/xlink" x="0px" y="0px"
	 viewBox="0 0 59.876 59.876" style="enable-background:new 0 0 59.876 59.876;" xml:space="preserve">
<path style="fill:#57ABC1;stroke:#556080;stroke-width:2;stroke-linecap:round;stroke-miterlimit:10;" d="M53.34,32.796
	c-0.201,0.116-0.452-0.029-0.452-0.261v-3.152v-3.152c0-0.232,0.251-0.377,0.452-0.261l2.411,1.392
	C54.522,14.838,44.406,4.927,31.793,4.007l1.496,2.591c0.116,0.201-0.029,0.452-0.261,0.452h-3.152h-3.152
	c-0.232,0-0.377-0.251-0.261-0.452l1.496-2.591C15.149,4.941,4.92,15.152,3.958,27.954l2.476-1.429
	c0.201-0.116,0.452,0.029,0.452,0.261v3.152v3.152c0,0.232-0.251,0.377-0.452,0.261l-2.475-1.429
	c0.957,12.611,10.905,22.706,23.452,23.887l-1.402-2.428c-0.116-0.201,0.029-0.452,0.261-0.452h3.152h3.152
	c0.232,0,0.377,0.251,0.261,0.452l-1.443,2.5c13.181-0.758,23.73-11.332,24.444-24.526L53.34,32.796z"/>
<path style="fill:#FFFFFF;" d="M29.888,50.929c-0.004,0-0.008,0-0.013,0c-0.835,0-1.678-0.05-2.504-0.147
	c-0.549-0.065-0.94-0.563-0.876-1.111c0.065-0.548,0.572-0.938,1.11-0.875c0.753,0.089,1.49,0.118,2.282,0.134
	c0.768,0,1.541-0.047,2.3-0.139c0.557-0.066,1.047,0.324,1.113,0.872c0.066,0.548-0.324,1.047-0.873,1.113
	C31.59,50.877,30.735,50.929,29.888,50.929z M22.805,49.644c-0.117,0-0.237-0.021-0.354-0.065c-1.58-0.597-3.089-1.388-4.483-2.35
	c-0.455-0.313-0.569-0.936-0.256-1.391c0.313-0.456,0.936-0.571,1.391-0.256c1.263,0.87,2.627,1.585,4.056,2.125
	c0.517,0.195,0.777,0.772,0.582,1.289C23.589,49.397,23.208,49.644,22.805,49.644z M36.986,49.629c-0.402,0-0.782-0.246-0.935-0.645
	c-0.196-0.516,0.063-1.094,0.579-1.291c1.427-0.543,2.789-1.261,4.047-2.132c0.454-0.315,1.077-0.201,1.392,0.253
	c0.314,0.454,0.201,1.077-0.253,1.392c-1.391,0.963-2.896,1.756-4.475,2.357C37.226,49.608,37.104,49.629,36.986,49.629z
	 M14.925,44.214c-0.275,0-0.55-0.113-0.747-0.335c-1.125-1.265-2.095-2.663-2.884-4.157c-0.258-0.488-0.07-1.093,0.418-1.351
	c0.487-0.258,1.093-0.071,1.352,0.417c0.713,1.351,1.591,2.617,2.608,3.761c0.367,0.413,0.33,1.045-0.083,1.412
	C15.398,44.13,15.161,44.214,14.925,44.214z M44.852,44.185c-0.236,0-0.473-0.083-0.663-0.252c-0.414-0.366-0.451-0.998-0.085-1.412
	c1.017-1.146,1.892-2.414,2.603-3.767c0.259-0.488,0.861-0.677,1.351-0.42c0.489,0.257,0.678,0.861,0.421,1.351
	c-0.786,1.496-1.755,2.896-2.878,4.164C45.402,44.072,45.127,44.185,44.852,44.185z M10.461,35.753c-0.448,0-0.856-0.304-0.97-0.759
	c-0.405-1.635-0.612-3.324-0.615-5.021c-0.001-0.552,0.446-1.001,0.998-1.002c0.001,0,0.001,0,0.002,0c0.552,0,0.999,0.446,1,0.998
	c0.003,1.537,0.19,3.065,0.557,4.544c0.133,0.536-0.194,1.079-0.73,1.211C10.622,35.743,10.541,35.753,10.461,35.753z
	 M49.301,35.713c-0.079,0-0.159-0.009-0.239-0.029c-0.537-0.132-0.864-0.674-0.732-1.21c0.362-1.477,0.547-3.006,0.547-4.545
	c0-0.552,0.447-1.042,0.999-1.042c0.553,0,1,0.407,1,0.959h-1l1,0.047c0.001,1.735-0.202,3.425-0.604,5.058
	C50.159,35.408,49.75,35.713,49.301,35.713z M10.442,26.185c-0.078,0-0.158-0.009-0.237-0.028c-0.537-0.13-0.866-0.671-0.735-1.208
	c0.399-1.643,1-3.236,1.785-4.737c0.255-0.489,0.862-0.678,1.349-0.423c0.49,0.256,0.679,0.86,0.423,1.35
	c-0.709,1.357-1.252,2.798-1.613,4.283C11.302,25.878,10.893,26.185,10.442,26.185z M49.279,26.065
	c-0.448,0-0.855-0.303-0.969-0.757c-0.371-1.482-0.923-2.92-1.641-4.272c-0.259-0.488-0.072-1.093,0.415-1.352
	c0.487-0.26,1.093-0.074,1.353,0.415c0.793,1.496,1.403,3.085,1.813,4.725c0.135,0.536-0.191,1.079-0.728,1.213
	C49.441,26.055,49.359,26.065,49.279,26.065z M14.873,17.703c-0.235,0-0.472-0.083-0.661-0.25c-0.414-0.365-0.454-0.997-0.089-1.412
	c1.119-1.269,2.391-2.401,3.777-3.365c0.452-0.314,1.077-0.203,1.392,0.25c0.315,0.454,0.203,1.077-0.251,1.392
	c-1.255,0.872-2.404,1.897-3.418,3.046C15.426,17.589,15.149,17.703,14.873,17.703z M44.799,17.613
	c-0.274,0-0.549-0.113-0.746-0.334c-1.019-1.142-2.176-2.16-3.437-3.025c-0.456-0.313-0.571-0.935-0.259-1.391
	c0.312-0.455,0.936-0.57,1.39-0.259c1.395,0.957,2.672,2.082,3.798,3.343c0.368,0.412,0.332,1.044-0.08,1.412
	C45.274,17.529,45.036,17.613,44.799,17.613z M22.729,12.244c-0.402,0-0.781-0.245-0.934-0.643
	c-0.198-0.516,0.061-1.094,0.576-1.292c1.579-0.604,3.231-1.015,4.911-1.222c0.547-0.065,1.046,0.323,1.114,0.871
	c0.067,0.548-0.322,1.047-0.87,1.115c-1.52,0.187-3.013,0.559-4.44,1.105C22.969,12.223,22.848,12.244,22.729,12.244z M36.907,12.2
	c-0.117,0-0.236-0.021-0.352-0.064c-1.43-0.537-2.927-0.9-4.449-1.078c-0.549-0.064-0.941-0.561-0.877-1.109
	c0.064-0.547,0.545-0.942,1.109-0.877c1.684,0.197,3.339,0.598,4.92,1.192c0.518,0.194,0.778,0.771,0.585,1.288
	C37.692,11.953,37.312,12.2,36.907,12.2z"/>
<path style="fill:#1081E0;" d="M30,40.929c-0.553,0-1-0.448-1-1v-20c0-0.552,0.447-1,1-1s1,0.448,1,1v20
	C31,40.481,30.553,40.929,30,40.929z"/>
<path style="fill:#1081E0;" d="M39.876,30.814h-20c-0.553,0-1-0.448-1-1s0.447-1,1-1h20c0.553,0,1,0.448,1,1
	S40.429,30.814,39.876,30.814z"/>
<path style="fill:#1081E0;" d="M24.876,35.929c-0.258,0-0.516-0.099-0.712-0.297c-0.388-0.393-0.384-1.026,0.009-1.414l10.124-10
	c0.394-0.388,1.025-0.384,1.415,0.009c0.388,0.393,0.384,1.026-0.009,1.414l-10.124,10C25.384,35.833,25.13,35.929,24.876,35.929z"
	/>
<path style="fill:#1081E0;" d="M35,35.929c-0.256,0-0.512-0.098-0.707-0.293l-10-10c-0.391-0.391-0.391-1.023,0-1.414
	s1.023-0.391,1.414,0l10,10c0.391,0.391,0.391,1.023,0,1.414C35.512,35.831,35.256,35.929,35,35.929z"/>
<g>
	<path style="fill:#EFCE4A;" d="M31.067,0.749c-0.245-0.424-0.702-0.687-1.191-0.687s-0.946,0.263-1.191,0.688l-3.087,5.348
		c-0.232,0.401-0.232,0.899-0.001,1.301S26.26,8.05,26.724,8.05h6.305c0.464,0,0.896-0.25,1.128-0.651
		c0.231-0.401,0.23-0.9-0.001-1.3L31.067,0.749z"/>
	<path style="fill:#EFCE4A;" d="M32.574,51.929H26.27c-0.464,0-0.896,0.25-1.127,0.651s-0.231,0.9,0,1.3l3,5.195
		c0.264,0.455,0.754,0.738,1.28,0.738c0.525,0,1.016-0.283,1.28-0.739l3-5.196c0.23-0.401,0.229-0.9-0.002-1.3
		C33.469,52.178,33.037,51.929,32.574,51.929z"/>
	<path style="fill:#EFCE4A;" d="M59.188,28.192l-5.35-3.089c-0.198-0.114-0.423-0.174-0.649-0.174c-0.718,0-1.302,0.584-1.302,1.302
		v6.305c0,0.718,0.584,1.302,1.302,1.302c0.228,0,0.452-0.061,0.65-0.175l5.35-3.088c0.423-0.245,0.687-0.701,0.687-1.191
		S59.612,28.437,59.188,28.192z"/>
	<path style="fill:#EFCE4A;" d="M6.584,25.484c-0.229,0-0.454,0.061-0.65,0.175L0.74,28.657C0.283,28.921,0,29.411,0,29.938
		c0,0.526,0.283,1.017,0.739,1.28l5.194,2.999c0.197,0.114,0.422,0.175,0.649,0.175c0.719,0,1.303-0.584,1.303-1.302v-6.305
		C7.886,26.068,7.302,25.484,6.584,25.484z"/>
</g>
<g>
</g>
<g>
</g>
<g>
</g>
<g>
</g>
<g>
</g>
<g>
</g>
<g>
</g>
<g>
</g>
<g>
</g>
<g>
</g>
<g>
</g>
<g>
</g>
<g>
</g>
<g>
</g>
<g>
</g>
</svg>
