<?xml version="1.0" encoding="iso-8859-1"?>
<!-- Generator: Adobe Illustrator 19.0.0, SVG Export Plug-In . SVG Version: 6.00 Build 0)  -->
<svg version="1.1" id="Capa_1" xmlns="http://www.w3.org/2000/svg" xmlns:xlink="http://www.w3.org/1999/xlink" x="0px" y="0px"
	 viewBox="0 0 58 58" style="enable-background:new 0 0 58 58;" xml:space="preserve">
<path style="fill:#C7CAC7;" d="M32,58c-8.271,0-15-6.729-15-15V21c0-6.104-2.369-10-4-10V7c4.561,0,8,6.019,8,14v22
	c0,6.065,4.935,11,11,11s11-4.935,11-11v-1h-6l10-6.236V39v4C47,51.271,40.271,58,32,58z"/>
<path style="fill:#556080;" d="M22.648,27.937C22.765,27.979,22.883,28,23,28c0.404,0,0.786-0.248,0.937-0.649
	c0.193-0.517-0.068-1.093-0.585-1.288L18,24.057v-1.863l4.648,1.743C22.765,23.979,22.883,24,23,24c0.404,0,0.786-0.248,0.937-0.649
	c0.193-0.517-0.068-1.093-0.585-1.288L18,20.057V0h-2v19.307l-0.648-0.243c-0.519-0.192-1.095,0.067-1.288,0.585
	c-0.193,0.517,0.068,1.093,0.585,1.288L16,21.443v1.863l-0.648-0.243c-0.519-0.192-1.095,0.067-1.288,0.585
	c-0.193,0.517,0.068,1.093,0.585,1.288L16,25.443v1.863l-0.648-0.243c-0.519-0.192-1.095,0.067-1.288,0.585
	c-0.193,0.517,0.068,1.093,0.585,1.288L16,29.443v1.863l-0.648-0.243c-0.519-0.191-1.095,0.068-1.288,0.585
	c-0.193,0.517,0.068,1.093,0.585,1.288l1.308,0.491C15.74,35.43,14.06,37,12,37c-0.553,0-1,0.448-1,1s0.447,1,1,1
	c2.915,0,5.348-2.09,5.887-4.849l4.762,1.786C22.765,35.979,22.883,36,23,36c0.404,0,0.786-0.248,0.937-0.649
	c0.193-0.517-0.068-1.093-0.585-1.288L18,32.057v-1.863l4.648,1.743C22.765,31.979,22.883,32,23,32c0.404,0,0.786-0.248,0.937-0.649
	c0.193-0.517-0.068-1.093-0.585-1.288L18,28.057v-1.863L22.648,27.937z"/>
<g>
</g>
<g>
</g>
<g>
</g>
<g>
</g>
<g>
</g>
<g>
</g>
<g>
</g>
<g>
</g>
<g>
</g>
<g>
</g>
<g>
</g>
<g>
</g>
<g>
</g>
<g>
</g>
<g>
</g>
</svg>
