<?xml version="1.0" encoding="iso-8859-1"?>
<!-- Generator: Adobe Illustrator 19.0.0, SVG Export Plug-In . SVG Version: 6.00 Build 0)  -->
<svg version="1.1" id="Capa_1" xmlns="http://www.w3.org/2000/svg" xmlns:xlink="http://www.w3.org/1999/xlink" x="0px" y="0px"
	 viewBox="0 0 58 58" style="enable-background:new 0 0 58 58;" xml:space="preserve">
<rect x="34.211" y="4.025" transform="matrix(0.7071 0.7071 -0.7071 0.7071 25.2911 -22.0079)" style="fill:#38454F;" width="10" height="31"/>
<path style="fill:#556080;" d="M54.24,12.634l-8.138-8.138c-0.486-0.486-0.486-1.275,0-1.762l1.067-1.067
	c0.486-0.486,1.275-0.486,1.762,0l8.138,8.138c0.486,0.486,0.486,1.275,0,1.762l-1.067,1.067
	C55.516,13.12,54.727,13.12,54.24,12.634z"/>
<path style="fill:#38454F;" d="M49.464,2.201c1.953-1.953,5.118-1.953,7.071,0s1.953,5.118,0,7.071"/>
<rect x="37.747" y="13.49" transform="matrix(0.7071 0.7071 -0.7071 0.7071 23.8266 -25.5434)" style="fill:#556080;" width="10" height="5"/>
<rect x="36.443" y="19.293" transform="matrix(0.7071 0.7071 -0.7071 0.7071 26.0233 -20.2399)" style="fill:#E0E1E2;" width="2" height="4"/>
<rect x="30.787" y="24.95" transform="matrix(0.7071 0.7071 -0.7071 0.7071 28.3665 -14.5835)" style="fill:#E0E1E2;" width="2" height="4"/>
<path style="fill:#E0E1E2;" d="M33.908,24.828L33.908,24.828c-0.389-0.389-0.389-1.025,0-1.414l0,0c0.389-0.389,1.025-0.389,1.414,0
	v0c0.389,0.389,0.389,1.025,0,1.414v0C34.933,25.217,34.297,25.217,33.908,24.828z"/>
<path style="fill:#556080;" d="M30.373,39.678L19.059,28.364l2.7-2.7c0.461-0.461,1.209-0.461,1.67,0l9.643,9.643
	c0.461,0.461,0.461,1.209,0,1.67L30.373,39.678z"/>
<path style="fill:#C7CAC7;" d="M27.416,45.207L13.53,31.32c-0.461-0.461-0.461-1.209,0-1.67l2.572-2.572
	c0.461-0.461,1.209-0.461,1.67,0l13.886,13.886c0.461,0.461,0.461,1.209,0,1.67l-2.572,2.572
	C28.625,45.668,27.877,45.668,27.416,45.207z"/>
<path style="fill:#EFCE4A;" d="M26.837,44.627c-3.515,3.515-9.213,3.515-12.728,0c-3.515-3.515-3.515-9.213,0-12.728L26.837,44.627z
	"/>
<line style="fill:none;stroke:#EFCE4A;stroke-width:2;stroke-linecap:round;stroke-miterlimit:10;" x1="11" y1="46.263" x2="4.5" y2="52.763"/>
<line style="fill:none;stroke:#EFCE4A;stroke-width:2;stroke-linecap:round;stroke-miterlimit:10;" x1="14" y1="48.263" x2="14" y2="56.263"/>
<line style="fill:none;stroke:#EFCE4A;stroke-width:2;stroke-linecap:round;stroke-miterlimit:10;" x1="9" y1="42.263" x2="1" y2="42.263"/>
<g>
</g>
<g>
</g>
<g>
</g>
<g>
</g>
<g>
</g>
<g>
</g>
<g>
</g>
<g>
</g>
<g>
</g>
<g>
</g>
<g>
</g>
<g>
</g>
<g>
</g>
<g>
</g>
<g>
</g>
</svg>
