<?xml version="1.0" encoding="iso-8859-1"?>
<!-- Generator: Adobe Illustrator 19.0.0, SVG Export Plug-In . SVG Version: 6.00 Build 0)  -->
<svg version="1.1" id="Capa_1" xmlns="http://www.w3.org/2000/svg" xmlns:xlink="http://www.w3.org/1999/xlink" x="0px" y="0px"
	 viewBox="0 0 57 57" style="enable-background:new 0 0 57 57;" xml:space="preserve">
<path style="fill:#226BAC;" d="M36.5,25v3.19c0,0.448-0.363,0.81-0.81,0.81H21.31c-0.448,0-0.81-0.363-0.81-0.81V25h-15v28.125
	C5.5,55.265,7.235,57,9.375,57h38.25c2.14,0,3.875-1.735,3.875-3.875V25H36.5z"/>
<path style="fill:#16517C;" d="M5.5,32H1.705C1.039,32,0.5,31.461,0.5,30.795v-4.59C0.5,25.539,1.039,25,1.705,25H5.5V32z"/>
<path style="fill:#16517C;" d="M51.5,32h3.795c0.665,0,1.205-0.539,1.205-1.205v-4.59c0-0.665-0.539-1.205-1.205-1.205H51.5V32z"/>
<path style="fill:#E7ECED;" d="M49.5,19h-42v-2.716C7.5,15.023,8.523,14,9.784,14h37.431c1.262,0,2.284,1.023,2.284,2.284V19z"/>
<path style="fill:#556080;" d="M3.5,25h-2V12.239C1.5,6.042,6.542,1,12.739,1H18.5v2h-5.761C7.645,3,3.5,7.145,3.5,12.239V25z"/>
<path style="fill:#556080;" d="M55.5,25h-2V12.239C53.5,7.145,49.355,3,44.261,3H38.5V1h5.761C50.458,1,55.5,6.042,55.5,12.239V25z"
	/>
<rect x="18.5" style="fill:#7383BF;" width="20" height="4"/>
<rect x="5.5" y="36" style="fill:#7383BF;" width="46" height="16"/>
<path style="fill:#7383BF;" d="M49.216,19H7.784C6.523,19,5.5,20.023,5.5,21.284V25h15v-1.19c0-0.448,0.363-0.81,0.81-0.81H35.69
	c0.448,0,0.81,0.363,0.81,0.81V25h15v-3.716C51.5,20.023,50.477,19,49.216,19z"/>
<path style="fill:#FFFFFF;" d="M35.69,29H21.31c-0.448,0-0.81-0.363-0.81-0.81V23.81c0-0.448,0.363-0.81,0.81-0.81H35.69
	c0.448,0,0.81,0.363,0.81,0.81v4.379C36.5,28.637,36.137,29,35.69,29z"/>
<path style="fill:#C7CAC7;" d="M32.5,27h-8c-0.552,0-1-0.448-1-1s0.448-1,1-1h8c0.552,0,1,0.448,1,1S33.052,27,32.5,27z"/>
<path style="fill:#C7CAC7;" d="M29.618,33h-2.236c-1.039,0-1.882-0.842-1.882-1.882V29h6v2.118C31.5,32.158,30.658,33,29.618,33z"/>
<g>
</g>
<g>
</g>
<g>
</g>
<g>
</g>
<g>
</g>
<g>
</g>
<g>
</g>
<g>
</g>
<g>
</g>
<g>
</g>
<g>
</g>
<g>
</g>
<g>
</g>
<g>
</g>
<g>
</g>
</svg>
