<?xml version="1.0" encoding="iso-8859-1"?>
<!-- Generator: Adobe Illustrator 19.0.0, SVG Export Plug-In . SVG Version: 6.00 Build 0)  -->
<svg version="1.1" id="Capa_1" xmlns="http://www.w3.org/2000/svg" xmlns:xlink="http://www.w3.org/1999/xlink" x="0px" y="0px"
	 viewBox="0 0 58 58" style="enable-background:new 0 0 58 58;" xml:space="preserve">
<path style="fill:#EBBA16;" d="M32.536,10.607L32.536,10.607c-1.953,1.953-5.118,1.953-7.071,0l0,0
	c-1.953-1.953-1.953-5.118,0-7.071L29,0l3.536,3.536C34.488,5.488,34.488,8.654,32.536,10.607z"/>
<line style="fill:none;stroke:#DC691D;stroke-width:2;stroke-linecap:round;stroke-linejoin:round;stroke-miterlimit:10;" x1="29" y1="15" x2="29" y2="9"/>
<rect x="23" y="20" style="fill:#C7CAC7;" width="12" height="7.648"/>
<path style="fill:#EB7937;" d="M44,58H14V36.46C14,30.683,18.683,26,24.46,26h9.08C39.317,26,44,30.683,44,36.46V58z"/>
<rect x="26" y="15" style="fill:#AFB6BB;" width="6" height="5"/>
<line style="fill:none;stroke:#556080;stroke-width:2;stroke-linecap:round;stroke-linejoin:round;stroke-miterlimit:10;" x1="35" y1="23" x2="40" y2="23"/>
<polyline style="fill:none;stroke:#556080;stroke-width:2;stroke-linecap:round;stroke-linejoin:round;stroke-miterlimit:10;" points="
	35,20 48,7 40,7 "/>
<polyline style="fill:none;stroke:#556080;stroke-width:2;stroke-linecap:round;stroke-linejoin:round;stroke-miterlimit:10;" points="
	23,20 10,7 18,7 "/>
<rect x="40" y="21" style="fill:#363E4B;" width="4" height="4"/>
<rect x="30" y="37" style="fill:#FBD490;" width="14" height="14"/>
<g>
</g>
<g>
</g>
<g>
</g>
<g>
</g>
<g>
</g>
<g>
</g>
<g>
</g>
<g>
</g>
<g>
</g>
<g>
</g>
<g>
</g>
<g>
</g>
<g>
</g>
<g>
</g>
<g>
</g>
</svg>
