<?xml version="1.0" encoding="iso-8859-1"?>
<!-- Generator: Adobe Illustrator 19.0.0, SVG Export Plug-In . SVG Version: 6.00 Build 0)  -->
<svg version="1.1" id="Capa_1" xmlns="http://www.w3.org/2000/svg" xmlns:xlink="http://www.w3.org/1999/xlink" x="0px" y="0px"
	 viewBox="0 0 58.018 58.018" style="enable-background:new 0 0 58.018 58.018;" xml:space="preserve">
<path style="fill:#AFB6BB;" d="M0.11,11.991c0,0,0.117-0.023,0.216-0.042l0,0c6.06-1.188,11.76-3.77,16.648-7.543l2.816-2.173
	c0.447-0.345,1.088-0.262,1.433,0.185l5.973,7.74c0.345,0.447,0.262,1.088-0.185,1.433l-2.816,2.173
	c-4.889,3.773-8.832,8.632-11.517,14.192l0,0c-0.044,0.091-0.096,0.198-0.096,0.198C4.925,27.166-0.877,19.648,0.11,11.991z"/>
<path style="fill:#EBBA16;" d="M12.094,7.609c1.696-0.949,3.333-2.01,4.88-3.204l0.143-0.11l-1.905-2.381
	C14.377,0.761,12.768,0.5,11.61,1.328l-0.669,0.479c-1.168,0.835-1.433,2.462-0.59,3.625L12.094,7.609z"/>
<path style="fill:#556080;" d="M36.797,35.269c-1.246,1.009-1.604,2.975-0.634,4.252c0.417,0.548,0.982,0.911,1.594,1.079
	c0.859,0.235,1.552,0.95,1.573,1.84c0.014,0.641,0.233,1.282,0.668,1.818c0.434,0.536,1.014,0.883,1.637,1.031
	c0.829,0.197,1.451,0.965,1.471,1.817c0.015,0.64,0.234,1.28,0.668,1.815c0.434,0.537,1.016,0.884,1.639,1.031
	c0.867,0.205,1.421,1.032,1.473,1.921c0.044,0.752,0.37,1.495,0.997,2.062c1.116,1.01,2.848,0.932,4.018-0.015l4.364-3.534
	c0.95-0.77,1.097-2.164,0.327-3.115l-12.317-15.21c-0.77-0.95-2.164-1.097-3.115-0.327L36.797,35.269z"/>
<path style="fill:#EBBA16;" d="M55.979,50.617l-4.079,3.303c-0.197,0.159-0.414,0.285-0.637,0.394l1.389,1.735
	c0.994,1.243,2.787,1.491,4.082,0.565l0,0c1.397-0.999,1.669-2.967,0.596-4.308L55.979,50.617z"/>
<path style="fill:#AFB6BB;" d="M57.878,11.991c0,0-0.117-0.023-0.216-0.042l0,0c-6.06-1.188-11.76-3.77-16.648-7.543l-2.816-2.173
	c-0.447-0.345-1.088-0.262-1.433,0.185l-5.973,7.74c-0.345,0.447-0.262,1.088,0.185,1.433l2.816,2.173
	c4.889,3.773,8.832,8.632,11.517,14.192l0,0c0.044,0.091,0.096,0.198,0.096,0.198C53.063,27.166,58.865,19.648,57.878,11.991z"/>
<path style="fill:#556080;" d="M45.894,7.609c-1.696-0.949-3.333-2.01-4.88-3.204l-0.143-0.11l1.905-2.381
	c0.835-1.153,2.445-1.415,3.602-0.586l0.669,0.479c1.168,0.835,1.433,2.462,0.59,3.625L45.894,7.609z"/>
<path style="fill:#EB7937;" d="M21.19,35.269c1.246,1.009,1.604,2.975,0.634,4.252c-0.417,0.548-0.982,0.911-1.594,1.079
	c-0.859,0.235-1.552,0.95-1.573,1.84c-0.014,0.641-0.233,1.282-0.668,1.818c-0.434,0.536-1.014,0.883-1.637,1.031
	c-0.829,0.197-1.451,0.965-1.471,1.817c-0.015,0.64-0.234,1.28-0.668,1.815c-0.434,0.537-1.016,0.884-1.639,1.031
	c-0.867,0.205-1.421,1.032-1.473,1.921c-0.044,0.752-0.37,1.495-0.997,2.062c-1.116,1.01-2.848,0.932-4.018-0.015l-4.364-3.534
	c-0.95-0.77-1.097-2.164-0.327-3.115l12.317-15.21c0.77-0.95,2.164-1.097,3.115-0.327L21.19,35.269z"/>
<path style="fill:#556080;" d="M21.19,35.269l-4.188-3.391l16.483-18.352l0.307,0.237c1.488,1.148,2.876,2.408,4.18,3.746
	L21.621,35.696C21.492,35.541,21.349,35.397,21.19,35.269z"/>
<path style="fill:#556080;" d="M2.008,50.617l4.079,3.303c0.197,0.159,0.414,0.285,0.637,0.394l-1.389,1.735
	c-0.994,1.243-2.787,1.491-4.082,0.565l0,0c-1.397-0.999-1.669-2.967-0.596-4.308L2.008,50.617z"/>
<g>
	<path style="fill:#EBBA16;" d="M28.994,18.526l-4.492-5.001l-0.307,0.237c-1.488,1.148-2.876,2.408-4.18,3.746l4.949,5.504
		L28.994,18.526z"/>
	<path style="fill:#EBBA16;" d="M33.024,23.013l-4.03,4.482l7.373,8.201c0.129-0.156,0.272-0.3,0.43-0.428l4.188-3.391
		L33.024,23.013z"/>
</g>
<g>
	<path style="fill:#E7ECED;" d="M4.491,10.887c-1.366,0.425-2.755,0.785-4.166,1.061h0c-0.099,0.019-0.216,0.042-0.216,0.042
		c-0.987,7.657,4.815,15.176,12.472,16.162c0,0,0.052-0.107,0.096-0.198l0,0c0.759-1.573,1.63-3.082,2.584-4.533
		C9.531,21.907,5.168,16.724,4.491,10.887z"/>
</g>
<path style="fill:#FFFFFF;" d="M12.16,22.18l2.854-3.201c0.368-0.412,0.332-1.044-0.081-1.412c-0.41-0.366-1.044-0.333-1.411,0.081
	l-3.046,3.416c-0.007,0.007-0.008,0.017-0.014,0.025C11.002,21.49,11.568,21.857,12.16,22.18z"/>
<path style="fill:#FFFFFF;" d="M8.413,19.245l6.14-5.233c0.421-0.358,0.471-0.99,0.112-1.41c-0.357-0.421-0.989-0.47-1.409-0.113
	l-6.108,5.205C7.535,18.239,7.958,18.756,8.413,19.245z"/>
<path style="fill:#FFFFFF;" d="M6.059,15.921c0.2-0.004,0.402-0.066,0.574-0.194l3.468-2.58c0.443-0.33,0.535-0.956,0.206-1.399
	c-0.33-0.443-0.957-0.537-1.399-0.206l-3.468,2.58c-0.051,0.038-0.081,0.091-0.123,0.137C5.53,14.827,5.778,15.382,6.059,15.921z"/>
<g>
	<path style="fill:#E7ECED;" d="M53.527,10.887c1.366,0.425,2.755,0.785,4.166,1.061h0c0.099,0.019,0.216,0.042,0.216,0.042
		c0.987,7.657-4.815,15.176-12.472,16.162c0,0-0.052-0.107-0.096-0.198l0,0c-0.759-1.573-1.63-3.082-2.584-4.533
		C48.487,21.907,52.85,16.724,53.527,10.887z"/>
</g>
<path style="fill:#FFFFFF;" d="M45.858,22.18l-2.854-3.201c-0.368-0.412-0.332-1.044,0.081-1.412
	c0.41-0.366,1.044-0.333,1.411,0.081l3.046,3.416c0.007,0.007,0.008,0.017,0.014,0.025C47.016,21.49,46.45,21.857,45.858,22.18z"/>
<path style="fill:#FFFFFF;" d="M49.605,19.245l-6.14-5.233c-0.421-0.358-0.471-0.99-0.112-1.41c0.357-0.421,0.989-0.47,1.409-0.113
	l6.108,5.205C50.483,18.239,50.059,18.756,49.605,19.245z"/>
<path style="fill:#FFFFFF;" d="M51.959,15.921c-0.2-0.004-0.402-0.066-0.574-0.194l-3.468-2.58c-0.443-0.33-0.535-0.956-0.206-1.399
	c0.33-0.443,0.957-0.537,1.399-0.206l3.468,2.58c0.051,0.038,0.081,0.091,0.123,0.137C52.488,14.827,52.24,15.382,51.959,15.921z"/>
<g>
</g>
<g>
</g>
<g>
</g>
<g>
</g>
<g>
</g>
<g>
</g>
<g>
</g>
<g>
</g>
<g>
</g>
<g>
</g>
<g>
</g>
<g>
</g>
<g>
</g>
<g>
</g>
<g>
</g>
</svg>
