<?xml version="1.0" encoding="iso-8859-1"?>
<!-- Generator: Adobe Illustrator 19.0.0, SVG Export Plug-In . SVG Version: 6.00 Build 0)  -->
<svg version="1.1" id="Capa_1" xmlns="http://www.w3.org/2000/svg" xmlns:xlink="http://www.w3.org/1999/xlink" x="0px" y="0px"
	 viewBox="0 0 58 58" style="enable-background:new 0 0 58 58;" xml:space="preserve">
<g>
	<path style="fill:#7383BF;" d="M48.707,38.293c-0.391-0.391-1.023-0.391-1.414,0l-7,7c-0.391,0.391-0.391,1.023,0,1.414
		C40.488,46.902,40.744,47,41,47s0.512-0.098,0.707-0.293l7-7C49.098,39.316,49.098,38.684,48.707,38.293z"/>
	<path style="fill:#7383BF;" d="M40.707,26.293c-0.391-0.391-1.023-0.391-1.414,0l-6,6c-0.391,0.391-0.391,1.023,0,1.414
		C33.488,33.902,33.744,34,34,34s0.512-0.098,0.707-0.293l6-6C41.098,27.316,41.098,26.684,40.707,26.293z"/>
	<path style="fill:#7383BF;" d="M10.707,38.293c-0.391-0.391-1.023-0.391-1.414,0s-0.391,1.023,0,1.414l7,7
		C16.488,46.902,16.744,47,17,47s0.512-0.098,0.707-0.293c0.391-0.391,0.391-1.023,0-1.414L10.707,38.293z"/>
</g>
<g>
	<path style="fill:#556080;" d="M48.707,39.707L45,43.414V48c0,4.959-4.351,6-8,6c-3.309,0-6-2.691-6-6v-5.685
		c1.238,0.591,2.668,0.841,4.179,0.585C38.589,42.321,41,39.219,41,35.76v-8.213c0-0.094-0.024-0.177-0.057-0.254
		c-0.046,0.15-0.117,0.294-0.236,0.413L37,31.414v4.468c0,1.451-0.978,2.784-2.402,3.06C32.683,39.314,31,37.85,31,36V21.809
		c5.112-0.944,9-5.427,9-10.809c0-6.065-4.935-11-11-11S18,4.935,18,11c0,5.382,3.888,9.865,9,10.809V48c0,3.309-2.691,6-6,6
		c-3.649,0-8-1.041-8-6v-4.586l-3.707-3.707C9.098,39.512,9,39.256,9,39v9c0,7.373,6.199,10,12,10c3.273,0,6.175-1.588,8-4.026
		C30.825,56.412,33.727,58,37,58c8.848,0,12-5.166,12-10v-8.452c0-0.094-0.024-0.177-0.057-0.254
		C48.896,39.444,48.826,39.588,48.707,39.707z M29,18c-3.866,0-7-3.134-7-7c0-3.866,3.134-7,7-7s7,3.134,7,7
		C36,14.866,32.866,18,29,18z"/>
</g>
<g>
</g>
<g>
</g>
<g>
</g>
<g>
</g>
<g>
</g>
<g>
</g>
<g>
</g>
<g>
</g>
<g>
</g>
<g>
</g>
<g>
</g>
<g>
</g>
<g>
</g>
<g>
</g>
<g>
</g>
</svg>
