<?xml version="1.0" encoding="iso-8859-1"?>
<!-- Generator: Adobe Illustrator 19.0.0, SVG Export Plug-In . SVG Version: 6.00 Build 0)  -->
<svg version="1.1" id="Capa_1" xmlns="http://www.w3.org/2000/svg" xmlns:xlink="http://www.w3.org/1999/xlink" x="0px" y="0px"
	 viewBox="0 0 58 58" style="enable-background:new 0 0 58 58;" xml:space="preserve">
<rect x="44.067" y="44.2" transform="matrix(0.7071 0.7071 -0.7071 0.7071 46.4538 -18.0928)" style="fill:#546A79;" width="2" height="5.657"/>
<path style="fill:#546A79;" d="M49.067,48.028c-0.256,0-0.512-0.098-0.707-0.293l-4-4c-0.391-0.391-0.391-1.023,0-1.414
	s1.023-0.391,1.414,0l4,4c0.391,0.391,0.391,1.023,0,1.414C49.579,47.931,49.323,48.028,49.067,48.028z"/>
<path style="fill:#FBD490;" d="M19.765,45.028h17.604c4.082-3.789,6.698-11.578,6.698-18.074c0-5.874-2.145-13.163-5.571-16.926
	H18.638c-3.427,3.763-5.571,11.052-5.571,16.926C13.067,33.451,15.682,41.24,19.765,45.028z"/>
<path style="fill:#26B99A;" d="M39.067,10h-21V9c0-2.209,1.791-4,4-4h13c2.209,0,4,1.791,4,4V10z"/>
<path style="fill:#14A085;" d="M34.067,5h-11v0c0-2.761,2.239-5,5-5h1C31.828,0,34.067,2.239,34.067,5L34.067,5z"/>
<path style="fill:#2E253B;" d="M32.067,45.028h-7v-2.5c0-1.933,1.567-3.5,3.5-3.5h0c1.933,0,3.5,1.567,3.5,3.5V45.028z"/>
<path style="fill:#71C3A9;" d="M43.067,11.028h-30c-0.552,0-1-0.448-1-1s0.448-1,1-1h30c0.552,0,1,0.448,1,1
	S43.619,11.028,43.067,11.028z"/>
<path style="fill:#14A085;" d="M44.067,53h-31v-0.972c0-4.434,3.594-7,8.028-7h14.943c4.434,0,8.028,2.566,8.028,7V53z"/>
<path style="fill:#556080;" d="M46.567,58h-35c-1.375,0-2.5-1.125-2.5-2.5v0c0-1.375,1.125-2.5,2.5-2.5h35
	c1.375,0,2.5,1.125,2.5,2.5v0C49.067,56.875,47.942,58,46.567,58z"/>
<path style="fill:#EBBA16;" d="M28.424,39.028L28.424,39.028c-5.042,0-4.983-7.407-3.428-10l3.428-7l3.428,7
	C33.407,31.621,33.383,39.028,28.424,39.028z"/>
<path style="fill:#DC691D;" d="M28.663,39.028L28.663,39.028c-2.439,0-2.41-3.583-1.658-4.837l1.658-3.386l1.658,3.386
	C31.074,35.445,31.062,39.028,28.663,39.028z"/>
<path style="fill:#949493;" d="M28.981,7.028h-0.001c-0.552,0.001-1,0.449-0.999,1.001c0.005,3.266-2.115,8.955-5.4,14.493
	C17.419,31.219,11.973,35.496,10.5,34.617c-1.307-0.776-0.556-6.209,3.175-13.424c0.461-2.313,1.177-4.605,2.104-6.637
	c-1.055,1.111-1.861,2.202-2.171,2.642C8.9,25.133,5.97,34.254,9.479,36.337c0.428,0.254,0.902,0.374,1.414,0.374
	c3.679,0,9.273-6.202,13.407-13.168c3.51-5.916,5.687-11.861,5.681-15.516C29.98,7.475,29.533,7.028,28.981,7.028z"/>
<g>
</g>
<g>
</g>
<g>
</g>
<g>
</g>
<g>
</g>
<g>
</g>
<g>
</g>
<g>
</g>
<g>
</g>
<g>
</g>
<g>
</g>
<g>
</g>
<g>
</g>
<g>
</g>
<g>
</g>
</svg>
