<?xml version="1.0" encoding="iso-8859-1"?>
<!-- Generator: Adobe Illustrator 19.0.0, SVG Export Plug-In . SVG Version: 6.00 Build 0)  -->
<svg version="1.1" id="Capa_1" xmlns="http://www.w3.org/2000/svg" xmlns:xlink="http://www.w3.org/1999/xlink" x="0px" y="0px"
	 viewBox="0 0 54.421 54.421" style="enable-background:new 0 0 54.421 54.421;" xml:space="preserve">
<path style="fill:#C7CAC7;" d="M42.309,54.421H26.486c-4.757,0-8.613-3.856-8.613-8.613V33.421h33.048v12.387
	C50.921,50.565,47.065,54.421,42.309,54.421z"/>
<circle style="fill:#949493;" cx="42.921" cy="27.421" r="3"/>
<path style="fill:#EBBA16;" d="M36.921,14.921c0,1.933-1.567,3.5-3.5,3.5c-1.933,0-3.5-1.567-3.5-3.5s1.567-8.5,3.5-8.5
	C35.354,6.421,36.921,12.988,36.921,14.921z"/>
<path style="fill:#C7CAC7;" d="M9.6,5.419l-5.482,13.72c-1.765,4.417,0.385,9.428,4.802,11.193l8.717,3.483L29.51,4.101
	l-8.717-3.483C16.376-1.148,11.365,1.002,9.6,5.419z"/>
<polygon style="fill:#9E6C53;" points="38.921,33.421 32.921,33.421 27.921,33.421 27.921,22.421 38.921,22.421 "/>
<path style="fill:#F2ECBF;" d="M28.921,51.421c-4.411,0-8-3.589-8-8c0-0.552,0.448-1,1-1s1,0.448,1,1c0,3.309,2.691,6,6,6
	c0.552,0,1,0.448,1,1S29.474,51.421,28.921,51.421z"/>
<circle style="fill:#EBBA16;" cx="32.921" cy="25.421" r="1"/>
<circle style="fill:#EBBA16;" cx="35.921" cy="27.421" r="1"/>
<circle style="fill:#EBBA16;" cx="30.921" cy="28.421" r="1"/>
<circle style="fill:#EBBA16;" cx="33.921" cy="30.421" r="1"/>
<g>
</g>
<g>
</g>
<g>
</g>
<g>
</g>
<g>
</g>
<g>
</g>
<g>
</g>
<g>
</g>
<g>
</g>
<g>
</g>
<g>
</g>
<g>
</g>
<g>
</g>
<g>
</g>
<g>
</g>
</svg>
