<?xml version="1.0" encoding="iso-8859-1"?>
<!-- Generator: Adobe Illustrator 19.0.0, SVG Export Plug-In . SVG Version: 6.00 Build 0)  -->
<svg version="1.1" id="Capa_1" xmlns="http://www.w3.org/2000/svg" xmlns:xlink="http://www.w3.org/1999/xlink" x="0px" y="0px"
	 viewBox="0 0 62.615 62.615" style="enable-background:new 0 0 62.615 62.615;" xml:space="preserve">
<g>
	<path style="fill:#47363D;" d="M27.947,50.682l-11.635,4.475l1.499-9.742l10.751-2.833c0.534-0.141,0.853-0.688,0.712-1.222
		s-0.695-0.851-1.222-0.712l-9.909,2.611l1.153-7.492c0.084-0.546-0.29-1.057-0.836-1.141c-0.547-0.08-1.057,0.29-1.141,0.836
		l-1.386,9.01c0,0.001,0,0.001,0,0.001l-2.483,16.141h-1.142c-0.553,0-1,0.447-1,1s0.447,1,1,1h4c0.553,0,1-0.447,1-1s-0.447-1-1-1
		h-0.834l0.489-3.18l12.705-4.886c0.515-0.198,0.772-0.777,0.574-1.293C29.041,50.74,28.462,50.485,27.947,50.682z"/>
	<path style="fill:#47363D;" d="M50.306,60.615h-1.142l-2.483-16.141c0,0,0-0.001,0-0.002l-1.386-9.01
		c-0.084-0.545-0.586-0.923-1.141-0.836c-0.546,0.084-0.92,0.595-0.836,1.141l1.153,7.492l-9.909-2.611
		c-0.533-0.138-1.081,0.178-1.222,0.712s0.178,1.081,0.712,1.222l10.751,2.833l1.499,9.742l-11.635-4.475
		c-0.516-0.196-1.095,0.059-1.293,0.574s0.06,1.095,0.574,1.293l12.705,4.886l0.489,3.18h-0.834c-0.553,0-1,0.447-1,1s0.447,1,1,1h4
		c0.553,0,1-0.447,1-1S50.859,60.615,50.306,60.615z"/>
</g>
<polygon style="fill:#6B4842;" points="31.244,8.523 15.306,19.557 15.306,35.615 47.306,35.615 47.306,20.261 "/>
<path style="fill:#6B4842;" d="M27.306,34.615v28h2v-2h4v2h2v-28H27.306z M33.306,36.615v2h-4v-2H33.306z M29.306,50.615v-2h4v2
	H29.306z M33.306,52.615v2h-4v-2H33.306z M29.306,46.615v-2h4v2H29.306z M29.306,42.615v-2h4v2H29.306z M29.306,58.615v-2h4v2
	H29.306z"/>
<rect x="27.306" y="23.615" style="fill:#9E6C53;" width="8" height="12"/>
<g>
	<path style="fill:#47363D;" d="M23.306,24.615h-7c-0.553,0-1,0.447-1,1s0.447,1,1,1h7c0.553,0,1-0.447,1-1
		S23.859,24.615,23.306,24.615z"/>
	<path style="fill:#47363D;" d="M21.306,21.615c0.553,0,1-0.447,1-1s-0.447-1-1-1h-6c-0.553,0-1,0.447-1,1s0.447,1,1,1H21.306z"/>
	<path style="fill:#47363D;" d="M26.306,14.615h-5c-0.553,0-1,0.447-1,1s0.447,1,1,1h5c0.553,0,1-0.447,1-1
		S26.859,14.615,26.306,14.615z"/>
	<path style="fill:#47363D;" d="M41.306,15.615c0-0.553-0.447-1-1-1h-7c-0.553,0-1,0.447-1,1s0.447,1,1,1h7
		C40.859,16.615,41.306,16.168,41.306,15.615z"/>
	<path style="fill:#47363D;" d="M48.306,20.615c0-0.553-0.447-1-1-1h-10c-0.553,0-1,0.447-1,1s0.447,1,1,1h10
		C47.859,21.615,48.306,21.168,48.306,20.615z"/>
	<path style="fill:#47363D;" d="M47.306,24.615h-6c-0.553,0-1,0.447-1,1s0.447,1,1,1h6c0.553,0,1-0.447,1-1
		S47.859,24.615,47.306,24.615z"/>
	<path style="fill:#47363D;" d="M21.306,29.615h-5c-0.553,0-1,0.447-1,1s0.447,1,1,1h5c0.553,0,1-0.447,1-1
		S21.859,29.615,21.306,29.615z"/>
	<path style="fill:#47363D;" d="M47.306,29.615h-8c-0.553,0-1,0.447-1,1s0.447,1,1,1h8c0.553,0,1-0.447,1-1
		S47.859,29.615,47.306,29.615z"/>
</g>
<circle style="fill:#47363D;" cx="29.306" cy="29.615" r="1"/>
<line style="fill:none;stroke:#C7CAC7;stroke-width:2;stroke-linecap:round;stroke-linejoin:round;stroke-miterlimit:10;" x1="44.306" y1="4" x2="44.306" y2="1"/>
<line style="fill:none;stroke:#C7CAC7;stroke-width:2;stroke-linecap:round;stroke-linejoin:round;stroke-miterlimit:10;" x1="41.306" y1="3" x2="41.306" y2="2"/>
<polygon style="fill:#6B4842;" points="46.306,15.615 46.306,7 40.306,7 40.306,11.231 "/>
<path style="fill:#9E6C53;" d="M52.632,24.153L31.244,8.523L9.94,23.272c-0.341,0.236-0.811,0.13-1.017-0.229L7.63,20.796
	c-0.184-0.319-0.092-0.726,0.211-0.935l23.42-16.214c0.027-0.019,0.063-0.018,0.089,0.001l23.438,17.128
	c0.294,0.215,0.377,0.619,0.192,0.932l-1.321,2.234C53.447,24.302,52.97,24.4,52.632,24.153z"/>
<g>
</g>
<g>
</g>
<g>
</g>
<g>
</g>
<g>
</g>
<g>
</g>
<g>
</g>
<g>
</g>
<g>
</g>
<g>
</g>
<g>
</g>
<g>
</g>
<g>
</g>
<g>
</g>
<g>
</g>
</svg>
