<?xml version="1.0" encoding="iso-8859-1"?>
<!-- Generator: Adobe Illustrator 19.0.0, SVG Export Plug-In . SVG Version: 6.00 Build 0)  -->
<svg version="1.1" id="Capa_1" xmlns="http://www.w3.org/2000/svg" xmlns:xlink="http://www.w3.org/1999/xlink" x="0px" y="0px"
	 viewBox="0 0 58 58" style="enable-background:new 0 0 58 58;" xml:space="preserve">
<rect x="45" y="10.5" style="fill:#9E8D7D;" width="13" height="37"/>
<rect x="45" y="38.5" style="fill:#EAE1BB;" width="13" height="9"/>
<line style="fill:none;stroke:#FBD490;stroke-width:2;stroke-linecap:round;stroke-miterlimit:10;" x1="49" y1="32.5" x2="44" y2="32.5"/>
<line style="fill:none;stroke:#FBD490;stroke-width:2;stroke-linecap:round;stroke-miterlimit:10;" x1="49" y1="24.5" x2="44" y2="24.5"/>
<line style="fill:none;stroke:#FBD490;stroke-width:2;stroke-linecap:round;stroke-miterlimit:10;" x1="49" y1="16.5" x2="44" y2="16.5"/>
<rect y="9.5" style="fill:#EAE1BB;" width="45" height="39"/>
<rect y="38.5" style="fill:#896884;" width="45" height="10"/>
<g>
	<circle style="fill:#556080;" cx="2" cy="40.5" r="1"/>
	<circle style="fill:#556080;" cx="8" cy="40.5" r="1"/>
	<circle style="fill:#556080;" cx="2" cy="46.5" r="1"/>
	<circle style="fill:#556080;" cx="8" cy="46.5" r="1"/>
	<circle style="fill:#556080;" cx="5" cy="43.5" r="1"/>
	<circle style="fill:#556080;" cx="14" cy="40.5" r="1"/>
	<circle style="fill:#556080;" cx="14" cy="46.5" r="1"/>
	<circle style="fill:#556080;" cx="11" cy="43.5" r="1"/>
	<circle style="fill:#556080;" cx="17" cy="43.5" r="1"/>
	<circle style="fill:#556080;" cx="20" cy="40.5" r="1"/>
	<circle style="fill:#556080;" cx="26" cy="40.5" r="1"/>
	<circle style="fill:#556080;" cx="20" cy="46.5" r="1"/>
	<circle style="fill:#556080;" cx="26" cy="46.5" r="1"/>
	<circle style="fill:#556080;" cx="23" cy="43.5" r="1"/>
	<circle style="fill:#556080;" cx="32" cy="40.5" r="1"/>
	<circle style="fill:#556080;" cx="32" cy="46.5" r="1"/>
	<circle style="fill:#556080;" cx="29" cy="43.5" r="1"/>
	<circle style="fill:#556080;" cx="35" cy="43.5" r="1"/>
	<circle style="fill:#556080;" cx="38" cy="40.5" r="1"/>
	<circle style="fill:#556080;" cx="38" cy="46.5" r="1"/>
	<circle style="fill:#556080;" cx="44" cy="40.5" r="1"/>
	<circle style="fill:#556080;" cx="44" cy="46.5" r="1"/>
	<circle style="fill:#556080;" cx="41" cy="43.5" r="1"/>
</g>
<rect x="5" y="13.5" style="fill:#556080;" width="35" height="20"/>
<polygon style="fill:#FFFFFF;" points="17,33.5 9,33.5 28,13.5 36,13.5 "/>
<path style="fill:#D5354E;" d="M56,32.5c0,1.657-1.343,3-3,3s-4-1.343-4-3c0-1.657,2.343-3,4-3S56,30.843,56,32.5z"/>
<path style="fill:#D5354E;" d="M56,24.5c0,1.657-1.343,3-3,3s-4-1.343-4-3s2.343-3,4-3S56,22.843,56,24.5z"/>
<path style="fill:#D5354E;" d="M56,16.5c0,1.657-1.343,3-3,3s-4-1.343-4-3s2.343-3,4-3S56,14.843,56,16.5z"/>
<g>
</g>
<g>
</g>
<g>
</g>
<g>
</g>
<g>
</g>
<g>
</g>
<g>
</g>
<g>
</g>
<g>
</g>
<g>
</g>
<g>
</g>
<g>
</g>
<g>
</g>
<g>
</g>
<g>
</g>
</svg>
