<?xml version="1.0" encoding="iso-8859-1"?>
<!-- Generator: Adobe Illustrator 19.0.0, SVG Export Plug-In . SVG Version: 6.00 Build 0)  -->
<svg version="1.1" id="Capa_1" xmlns="http://www.w3.org/2000/svg" xmlns:xlink="http://www.w3.org/1999/xlink" x="0px" y="0px"
	 viewBox="0 0 58 58" style="enable-background:new 0 0 58 58;" xml:space="preserve">
<polyline style="fill:#FFFFFF;stroke:#556080;stroke-width:2;stroke-linecap:round;stroke-linejoin:round;stroke-miterlimit:10;" points="
	29,11 29,1 20,4 29,7 "/>
<circle style="fill:#6C4127;" cx="8.5" cy="54.5" r="3.5"/>
<circle style="fill:#BE6E41;" cx="15.5" cy="54.5" r="3.5"/>
<circle style="fill:#6C4127;" cx="22.5" cy="54.5" r="3.5"/>
<circle style="fill:#BE6E41;" cx="29.5" cy="54.5" r="3.5"/>
<circle style="fill:#6C4127;" cx="36.5" cy="54.5" r="3.5"/>
<circle style="fill:#BE6E41;" cx="43.5" cy="54.5" r="3.5"/>
<circle style="fill:#6C4127;" cx="50.5" cy="54.5" r="3.5"/>
<rect x="27" y="43" style="fill:#BE6E41;" width="4" height="5"/>
<rect x="27" y="10.033" style="fill:#BE6E41;" width="4" height="3.984"/>
<path style="fill:#F2ECBF;" d="M40.277,41.12C39.404,38.851,39.319,37.785,39,35l-1-0.6l-0.5-1.5L34,32.4l2.5-1.5l-1-2l2.719-0.777
	c0.037-4.394,0.719-8.763,2.057-12.243l0.006-0.015C40.628,14.966,39.965,14,39.001,14H18.999c-0.963,0-1.627,0.966-1.281,1.866
	l0.003,0.007c2.755,7.162,2.755,18.092,0,25.254l-0.003,0.007C17.372,42.034,18.035,43,18.999,43h20.002
	c0.963,0,1.627-0.966,1.281-1.866L40.277,41.12z"/>
<line style="fill:none;stroke:#6B5B4B;stroke-width:2;stroke-linecap:round;stroke-miterlimit:10;" x1="5" y1="48" x2="53" y2="48"/>
<g>
</g>
<g>
</g>
<g>
</g>
<g>
</g>
<g>
</g>
<g>
</g>
<g>
</g>
<g>
</g>
<g>
</g>
<g>
</g>
<g>
</g>
<g>
</g>
<g>
</g>
<g>
</g>
<g>
</g>
</svg>
