<?xml version="1.0" encoding="iso-8859-1"?>
<!-- Generator: Adobe Illustrator 19.0.0, SVG Export Plug-In . SVG Version: 6.00 Build 0)  -->
<svg version="1.1" id="Capa_1" xmlns="http://www.w3.org/2000/svg" xmlns:xlink="http://www.w3.org/1999/xlink" x="0px" y="0px"
	 viewBox="0 0 57 57" style="enable-background:new 0 0 57 57;" xml:space="preserve">
<path style="fill:#ED8A19;" d="M11.5,48.637V9.363C11.5,5.297,14.797,2,18.863,2h19.274C42.203,2,45.5,5.297,45.5,9.363v39.274
	c0,4.067-3.297,7.363-7.363,7.363H18.863C14.797,56,11.5,52.703,11.5,48.637z"/>
<path style="fill:#A06340;" d="M21.748,51c-2.898,0-5.248-2.35-5.248-5.248V12.248C16.5,9.35,18.85,7,21.748,7h13.504
	C38.15,7,40.5,9.35,40.5,12.248v33.504C40.5,48.65,38.15,51,35.252,51H21.748z"/>
<rect x="16.5" y="16" style="fill:#EBBA16;" width="24" height="6"/>
<rect x="16.5" y="36" style="fill:#EBBA16;" width="24" height="6"/>
<path style="fill:#48A0DC;" d="M52.893,56.981c2.08-0.198,3.607-2.064,3.607-4.153V42.236c0-1.471-0.342-2.921-1-4.236v0
	c-0.658-1.315-1-2.766-1-4.236V9h-4v24.764c0,1.471-0.342,2.921-1,4.236v0c-0.658,1.315-1,2.766-1,4.236V53
	C48.5,55.339,50.507,57.209,52.893,56.981z"/>
<rect x="11.5" y="26" style="fill:#556080;" width="5" height="6"/>
<rect x="40.5" y="26" style="fill:#556080;" width="5" height="6"/>
<path style="fill:#1081E0;" d="M52.5,0L52.5,0c1.657,0,3,1.343,3,3v5.386C55.5,8.725,55.225,9,54.886,9h-4.772
	C49.775,9,49.5,8.725,49.5,8.386V3C49.5,1.343,50.843,0,52.5,0z"/>
<path style="fill:#48A0DC;" d="M4.893,56.981c2.08-0.198,3.607-2.064,3.607-4.153l0-10.592c0-1.471-0.342-2.921-1-4.236l0,0
	c-0.658-1.315-1-2.766-1-4.236V9h-4v24.764c0,1.471-0.342,2.921-1,4.236l0,0c-0.658,1.315-1,2.766-1,4.236L0.5,53
	C0.5,55.339,2.507,57.209,4.893,56.981z"/>
<path style="fill:#1081E0;" d="M4.5,0L4.5,0c1.657,0,3,1.343,3,3v5.386C7.5,8.725,7.225,9,6.886,9H2.114
	C1.775,9,1.5,8.725,1.5,8.386V3C1.5,1.343,2.843,0,4.5,0z"/>
<path style="fill:#1081E0;" d="M52.893,56.981c0.21-0.02,0.409-0.068,0.607-0.121V47c0-0.552-0.447-1-1-1s-1,0.448-1,1v9.853
	C51.942,56.967,52.406,57.028,52.893,56.981z"/>
<path style="fill:#1081E0;" d="M4.893,56.981c0.21-0.02,0.409-0.068,0.607-0.121V47c0-0.552-0.447-1-1-1s-1,0.448-1,1v9.853
	C3.942,56.967,4.406,57.028,4.893,56.981z"/>
<g>
</g>
<g>
</g>
<g>
</g>
<g>
</g>
<g>
</g>
<g>
</g>
<g>
</g>
<g>
</g>
<g>
</g>
<g>
</g>
<g>
</g>
<g>
</g>
<g>
</g>
<g>
</g>
<g>
</g>
</svg>
