<?xml version="1.0" encoding="iso-8859-1"?>
<!-- Generator: Adobe Illustrator 19.0.0, SVG Export Plug-In . SVG Version: 6.00 Build 0)  -->
<svg version="1.1" id="Capa_1" xmlns="http://www.w3.org/2000/svg" xmlns:xlink="http://www.w3.org/1999/xlink" x="0px" y="0px"
	 viewBox="0 0 58 58" style="enable-background:new 0 0 58 58;" xml:space="preserve">
<path style="fill:#BFA380;" d="M54,31h-2c0-7.168-5.832-13-13-13v-2C47.271,16,54,22.729,54,31z"/>
<path style="fill:#BFA380;" d="M6,52H4c0-6.617,5.383-12,12-12v2C10.486,42,6,46.486,6,52z"/>
<path style="fill:#AA8D79;" d="M40,21H16c-1.1,0-2-0.9-2-2v0c0-1.1,0.9-2,2-2h24c1.1,0,2,0.9,2,2v0C42,20.1,41.1,21,40,21z"/>
<path style="fill:#BFA380;" d="M40,25H16c-1.1,0-2-0.9-2-2v0c0-1.1,0.9-2,2-2h24c1.1,0,2,0.9,2,2v0C42,24.1,41.1,25,40,25z"/>
<path style="fill:#E1BA99;" d="M40,29H16c-1.1,0-2-0.9-2-2v0c0-1.1,0.9-2,2-2h24c1.1,0,2,0.9,2,2v0C42,28.1,41.1,29,40,29z"/>
<path style="fill:#BFA380;" d="M40,33H16c-1.1,0-2-0.9-2-2v0c0-1.1,0.9-2,2-2h24c1.1,0,2,0.9,2,2v0C42,32.1,41.1,33,40,33z"/>
<path style="fill:#E1BA99;" d="M40,37H16c-1.1,0-2-0.9-2-2v0c0-1.1,0.9-2,2-2h24c1.1,0,2,0.9,2,2v0C42,36.1,41.1,37,40,37z"/>
<path style="fill:#AA8D79;" d="M40,41H16c-1.1,0-2-0.9-2-2v0c0-1.1,0.9-2,2-2h24c1.1,0,2,0.9,2,2v0C42,40.1,41.1,41,40,41z"/>
<path style="fill:#BFA380;" d="M40.353,17v-2c0-8.25-5.559-15-12.353-15S15.647,6.75,15.647,15v2H40.353z"/>
<g>
	<path style="fill:#E1BA99;" d="M36.235,17v-2c0-6.065-3.24-10-8.235-10s-8.235,3.935-8.235,10v2H36.235z"/>
</g>
<g>
	<path style="fill:#BFA380;" d="M32.118,17v-2c0-2-1.647-5-4.118-5s-4.118,2-4.118,5v2H32.118z"/>
</g>
<path style="fill:#BFA380;" d="M15.647,41v2c0,8.25,5.559,15,12.353,15s12.353-6.75,12.353-15v-2H15.647z"/>
<g>
	<path style="fill:#E1BA99;" d="M19.765,41v2c0,6.065,3.24,10,8.235,10s8.235-3.935,8.235-10v-2H19.765z"/>
</g>
<g>
	<path style="fill:#BFA380;" d="M23.882,41v2c0,2,1.647,5,4.118,5s4.118-2,4.118-5v-2H23.882z"/>
</g>
<g>
</g>
<g>
</g>
<g>
</g>
<g>
</g>
<g>
</g>
<g>
</g>
<g>
</g>
<g>
</g>
<g>
</g>
<g>
</g>
<g>
</g>
<g>
</g>
<g>
</g>
<g>
</g>
<g>
</g>
</svg>
