<?xml version="1.0" encoding="iso-8859-1"?>
<!-- Generator: Adobe Illustrator 19.0.0, SVG Export Plug-In . SVG Version: 6.00 Build 0)  -->
<svg version="1.1" id="Capa_1" xmlns="http://www.w3.org/2000/svg" xmlns:xlink="http://www.w3.org/1999/xlink" x="0px" y="0px"
	 viewBox="0 0 59.001 59.001" style="enable-background:new 0 0 59.001 59.001;" xml:space="preserve">
<path style="fill:#E7ECED;" d="M56.321,13.604c-2.169-2.892-4.84-5.304-7.97-7.187C37.494,0.406,24.832-1.462,12.7,1.152
	L8.655,2.024L4.69,5.001l-3.602,3.56c-1.691,5.069-0.396,10.564,3.381,14.34c2.492,2.493,5.844,3.846,9.489,3.846
	c0.192,0,0.386-0.003,0.579-0.011c3.721-0.145,7.362-1.736,9.991-4.364l-1.414-1.414c-2.276,2.276-5.432,3.654-8.655,3.78
	c-3.318,0.133-6.352-1.026-8.576-3.25C2.646,18.25,1.536,13.54,2.985,9.194l6.092-5.215l4.045-0.872
	C24.78,0.594,36.948,2.391,47.351,8.149c2.877,1.731,5.356,3.97,7.37,6.655c1.639,2.186,2.271,4.976,1.736,7.654
	c-0.195,0.975-0.819,1.785-1.713,2.222s-1.915,0.433-2.805-0.012l-0.535-0.268c-0.298-0.148-0.568-0.342-0.806-0.575l-5.948-5.857
	l-1.402,1.425l5.948,5.857c0.387,0.38,0.828,0.696,1.313,0.938l0.535,0.268c0.732,0.366,1.52,0.549,2.309,0.549
	c0.773,0,1.548-0.176,2.27-0.53c1.458-0.713,2.478-2.035,2.796-3.626C59.065,19.615,58.3,16.245,56.321,13.604z"/>
<path style="fill:#BC9D6F;" d="M50.612,15.708c-0.567-0.566-1.32-0.878-2.122-0.878s-1.555,0.312-2.122,0.878l-8.651,10.635
	c-0.694,0.853-1.999,0.85-2.688-0.008l-8.538-10.627c-0.567-0.566-1.32-0.878-2.122-0.878s-1.555,0.312-2.122,0.878
	c-1.17,1.17-1.17,3.073-0.017,4.226l6.234,7.313c3.165,3.714,4.904,8.434,4.904,13.313V57.27c0,0.956,0.775,1.731,1.731,1.731h2.537
	c0.956,0,1.731-0.775,1.731-1.731V40.623c0-4.917,1.765-9.671,4.975-13.396l6.268-7.276C51.782,18.782,51.782,16.878,50.612,15.708z
	"/>
<circle style="fill:#AFB6BB;" cx="13.368" cy="41.001" r="4"/>
<circle style="fill:#C7CAC7;" cx="10.419" cy="10.555" r="4"/>
<circle style="fill:#C7CAC7;" cx="17.368" cy="48.001" r="4"/>
<circle style="fill:#E7ECED;" cx="9.368" cy="48.001" r="4"/>
<circle style="fill:#C7CAC7;" cx="5.368" cy="55.001" r="4"/>
<circle style="fill:#E7ECED;" cx="21.368" cy="55.001" r="4"/>
<circle style="fill:#AFB6BB;" cx="13.368" cy="55.001" r="4"/>
<polygon style="fill:#9E6C53;" points="24.409,22.49 23.029,20.929 27.467,16.923 28.676,18.428 "/>
<polygon style="fill:#9E6C53;" points="47.443,23.629 48.8,22.054 44.409,18.117 43.226,19.571 "/>
<path style="fill:#556080;" d="M6.419,10.555c0-2.209,1.791-4,4-4c0.297,0,0.584,0.037,0.862,0.099
	c0.279-0.42,0.254-0.983-0.117-1.353L7.183,1.319c-0.422-0.422-1.106-0.422-1.529,0L0.819,6.154c-0.422,0.422-0.422,1.106,0,1.529
	L4.8,11.664c0.422,0.422,1.106,0.422,1.529,0l0.202-0.202C6.463,11.169,6.419,10.868,6.419,10.555z"/>
<polygon style="fill:#9E6C53;" points="39.368,49.001 33.368,53.001 33.368,46.001 39.368,42.001 "/>
<g>
</g>
<g>
</g>
<g>
</g>
<g>
</g>
<g>
</g>
<g>
</g>
<g>
</g>
<g>
</g>
<g>
</g>
<g>
</g>
<g>
</g>
<g>
</g>
<g>
</g>
<g>
</g>
<g>
</g>
</svg>
