<?xml version="1.0" encoding="iso-8859-1"?>
<!-- Generator: Adobe Illustrator 19.0.0, SVG Export Plug-In . SVG Version: 6.00 Build 0)  -->
<svg version="1.1" id="Capa_1" xmlns="http://www.w3.org/2000/svg" xmlns:xlink="http://www.w3.org/1999/xlink" x="0px" y="0px"
	 viewBox="0 0 58 58" style="enable-background:new 0 0 58 58;" xml:space="preserve">
<path style="fill:#E7ECED;" d="M21.352,58H3.648C2.738,58,2,57.262,2,56.352V30h21v26.352C23,57.262,22.262,58,21.352,58z"/>
<path style="fill:#C7CAC7;" d="M20,30H5v-3.554C5,25.648,5.648,25,6.446,25h12.107C19.352,25,20,25.648,20,26.446V30z"/>
<path style="fill:#E0E1E2;" d="M17,25H8v-3.554C8,20.648,8.648,20,9.446,20h6.107C16.352,20,17,20.648,17,21.446V25z"/>
<path style="fill:#E7ECED;" d="M2,15.188V10C2,4.225,6.725,0,12.5,0h0C18.275,0,23,4.225,23,10v5.188C23,15.637,22.637,16,22.188,16
	H2.812C2.363,16,2,15.637,2,15.188z"/>
<path style="fill:#C7CAC7;" d="M47,56v-4c2.757,0,5-2.243,5-5s-2.243-5-5-5v-4c4.963,0,9,4.038,9,9S51.963,56,47,56z"/>
<path style="fill:#E7ECED;" d="M47,35H29.007C29.004,37.006,29,37.008,29,37.013v19.953C29,57.537,29.463,58,30.034,58h15.931
	C46.537,58,47,57.537,47,56.966V37.013C47,37.008,47.003,37.006,47,35z"/>
<rect x="29" y="45" style="fill:#556080;" width="18" height="4"/>
<rect x="2" y="49" style="fill:#556080;" width="21" height="4"/>
<path style="fill:#C7CAC7;" d="M47,22v-4c2.757,0,5-2.243,5-5s-2.243-5-5-5V4c4.963,0,9,4.038,9,9S51.963,22,47,22z"/>
<path style="fill:#E7ECED;" d="M47,1H29.007C29.004,3.006,29,3.008,29,3.013v19.953C29,23.537,29.463,24,30.034,24h15.931
	C46.537,24,47,23.537,47,22.966V3.013C47,3.008,47.003,3.006,47,1z"/>
<rect x="29" y="11" style="fill:#556080;" width="18" height="4"/>
<g>
</g>
<g>
</g>
<g>
</g>
<g>
</g>
<g>
</g>
<g>
</g>
<g>
</g>
<g>
</g>
<g>
</g>
<g>
</g>
<g>
</g>
<g>
</g>
<g>
</g>
<g>
</g>
<g>
</g>
</svg>
