<?xml version="1.0" encoding="UTF-8"?>
<!DOCTYPE svg PUBLIC "-//W3C//DTD SVG 1.1//EN" "http://www.w3.org/Graphics/SVG/1.1/DTD/svg11.dtd">
<!-- Creator: CorelDRAW -->
<svg xmlns="http://www.w3.org/2000/svg" xml:space="preserve" width="210mm" height="195mm" style="shape-rendering:geometricPrecision; text-rendering:geometricPrecision; image-rendering:optimizeQuality; fill-rule:evenodd; clip-rule:evenodd"
viewBox="0 0 210 195"
 xmlns:xlink="http://www.w3.org/1999/xlink">
 <defs>
  <style type="text/css">
   <![CDATA[
    .fil0 {fill:#99AE6A}
    .fil2 {fill:#FFFCC8}
    .fil1 {fill:#E39E24}
    .fil3 {fill:#F5D800}
   ]]>
  </style>
 </defs>
 <g id="Layer_x0020_1">
  <metadata id="CorelCorpID_0Corel-Layer"/>
  <g id="_76298552">
   <path id="_77438752" class="fil0" d="M169.962 101.105l0 -17.0261 12.9507 0c2.2627,0 4.5954,-1.1834 7.0325,-3.551 2.4716,-2.4021 3.69,-4.9432 3.69,-7.6587l0 -22.0371c0,-5.6398 -2.1583,-8.4597 -6.4404,-8.4597 -4.3516,0 -6.5103,2.8199 -6.5103,8.4597l0 15.5268c0,4.3516 -2.1234,6.5103 -6.336,6.5103l-4.3865 0 0 -63.9529c0,-5.6398 -2.1238,-8.4597 -6.4058,-8.4597 -4.3516,0 -6.5449,2.8199 -6.5449,8.4597l0 51.3155 -9.4692 0c-5.5353,0 -8.2858,-2.1932 -8.2858,-6.5452l0 -26.0058c0,-5.57 -2.1932,-8.3553 -6.6147,-8.3553 -4.2821,0 -6.4404,2.7853 -6.4404,8.3553l0 32.551c0,2.7155 1.2533,5.2566 3.6904,7.6242 2.4367,2.4022 4.8043,3.5856 7.0321,3.5856l20.0876 0 0 29.5491 12.9507 0.1143z"/>
   <path id="_74985024" class="fil1" d="M161.618 97.219l47.8226 0.2286 0 97.0956 -208.882 0 0 -97.0956c2.2282,-0.0695 4.491,-0.2784 6.7192,-0.5917 5.396,-0.8355 10.4092,-2.2282 15.109,-4.2126 5.0827,-2.1583 10.2702,-5.9182 15.4922,-11.3142l22.9421 5.2221c4.491,1.9494 9.3648,5.6048 14.5868,10.8964 3.551,-0.0695 6.9281,-0.2784 10.0962,-0.5917 7.6242,-0.8355 13.7863,-2.2282 18.4861,-4.2126 5.1522,-2.1583 10.3397,-5.9182 15.4918,-11.3142l22.9425 5.2221c4.836,1.1006 11.2631,7.205 16.4156,12.4966l2.778 -1.8288z"/>
   <path id="_76902152" class="fil2" d="M43.6931 100.407c0.1394,-0.7311 0.2089,-1.4971 0.2089,-2.2282 0,-4.1777 -1.5667,-8.1464 -4.6999,-11.9409 0.8355,2.6456 1.2533,5.3265 1.2533,8.042 0,2.4716 -0.4178,4.5954 -1.2533,6.4404 -2.4371,5.2221 -7.8331,8.9124 -16.1884,11.0013 3.725,-0.3483 6.9626,-0.94 9.6781,-1.8105 6.5798,-2.0539 10.2702,-5.222 11.0013,-9.5041z"/>
   <path id="_74415792" class="fil2" d="M125.297 100.407c0.139,-0.7311 0.2089,-1.4971 0.2089,-2.2282 0,-4.1777 -1.5666,-8.1464 -4.6999,-11.9409 0.8355,2.6456 1.2184,5.3265 1.2184,8.042 0,2.4716 -0.3829,4.5954 -1.2184,6.4404 -2.3676,5.2221 -7.7636,8.9124 -16.1189,11.0013 3.6904,-0.3483 6.8932,-0.94 9.7131,-1.8105 6.5798,-2.0539 10.2002,-5.222 10.8968,-9.5041z"/>
   <path id="_77392632" class="fil3" d="M85.1212 35.4445c0,8.4947 -3.1332,15.7357 -9.3298,21.7587 -6.2319,6.0227 -13.7167,9.0515 -22.4897,9.0515 -8.7731,0 -16.2929,-3.0288 -22.4898,-9.0515 -6.2315,-6.023 -9.3298,-13.264 -9.3298,-21.7587 0,-8.4946 3.0983,-15.7356 9.3298,-21.7237 6.1969,-5.9881 13.7167,-8.9819 22.4898,-8.9819 8.773,0 16.2578,2.9938 22.4897,8.9819 6.1966,5.9881 9.3298,13.2291 9.3298,21.7237z"/>
  </g>
 </g>
</svg>
